<svg fill="none" height="102" viewBox="0 0 90 102" width="90" xmlns="http://www.w3.org/2000/svg"><g fill="#000" stroke="#3db96d" stroke-width=".5"><path d="m23.2951 31.1098-.2187-.0388-.2098-.1477-.1011-.1665-.0166-.2287.0599-.1743.0922-.1477.0322-.1565-.0733-.1665-.1743-.1888-.4119-.1399-.0688.5074-.1021.2132-.1744.1798-.2664.1255-.3231.1931-.2375.1877-.765 1.0302.1177.6217.1044.1255.1654.1554.1399.0611.3985.2376.4696.6183.4919.4552.6883.8416.3952.2853.2698.0843.3986-.2287.252-.0532.3286-.0289 1.0025-.3209 1.3156.0089.4207-.0788.2643-.1632.3897-.4752.2431-.212.4352-.0944 2.1615.1899.4286.192.4207.3564 1.1602 1.2778.5873.7661.0344.3797-.1876.2942-.5729.3597-.4596.3774-.1565.2143-.0278.2254.1277.2631.5506.6317.916.856.8881.6106.4752.1798.383-.0122.9703-.6006.3497-.0955.3797.0888 5.722 5.8652.0633.0344.0099.0045 4.2765-1.2834 5.0614-1.5188 5.0614-1.5221 1.1979-.3597-.0111-.0044-.03-.0111-25.3613-8.8216-.7194-.4186-.6506-.615-.3575-.1888-1.1035-.1199-.3775.0389-.2631.1188-.2154.1665-.2631.121-.3064.0078-.3153-.0933-.3575-.262-.8249-.4085-.826-.08-.2553.0334-.2121.051-.4241.1732-.2831.0233-.313-.0843-.4974-.3797-.2565-.1599-.2042-.0267-.2787.2776-.2054.1143z"/><path d="m16.0731 48.6129-.282-.0033-.3863-.0766-2.0483-.6873-1.5466-.0632-.4363.1188-.0055.2398-.0822.5429-.363.9625-.3797.6883.151.1732-.0333.5162-.2875.5019-.2554.5817.1121.6539.1943.6139.2176.4797.3042.5961.1432.6528-.0966.6795-.9592 1.9028-.13097.6984.00222.7471-.22759.433-.55177.534.15765.1077 1.02136.7194.2842.0777.3642.0267.2287-.1399.1332-.2354.1299-.9681.2065-.6172.0888-.4852.1266-.1865.1931-.0622.2598.0111.362-.0522.2597.0178.231.0688.2287.2043.2842.1876.2931.1144 1.743.0866 3.2751 1.3111.1354.121.0577.1455.0855.1687.191.1843.2564.1843.7405.3442.2132.1276.1588.1743.212.3586.1621.181.8659.645.8749.8826 2.3936-4.4741 1.0413-3.3317-.4785-1.3289-.3419-2.3447-6.1816-.1499-.2032-.1821-.0721-.2864.0499-.4652.0766-.3386.1644-.4763.0377-.2153-.0533-.3142-.1399-.4552-.4973-.8782-.9126-.2109-.4308-.0089-.6983.0677z"/><path d="m18.7453 48.5622.222-.212.1232-.0966.1555-.1632.0888-.1554.3497-1.0836.1354-.2609.282-.4107.0633-.1521-.0378-.1466-.1609-.1576-.121-.1488-.0189-.1898.0699-.1732.0156-.2287-.1233-.3031-.8881-.9615-.1521-.3763-.1577-.6184-.0322-.2331.0289-.2076.101-.1843.352-.423.1199-.2209.0444-.2254-.0478-1.7397-.1454-.1377-.1366-.0222-.2564.1066-.3142.0788-1.0325.0034-.7682.2009-.262.1566-.5463.0488-.2531.0777-.2476.1654-.1232.1621-.2387.6462-.3353.6117-.2564.2498-.2853.1354-1.4056-.0788-.2509-.0311-.4563 1.0625-.3252 1.7408-.1122 1.7763.0067.0388.0022.0222-.0089.0078-.0122-.0089.0089.0078-.0289 1.3911.4363-.1188 1.5465.0633 2.0484.6872.3863.0766.282.0033.6306-.2032.6983-.0677.4308.0089z"/><path d="m15.0187 29.864-1.4211-.1721-.131.0144-.0899.3853.0866.2864v.1798l-.1665.0855-.0933.1088v.131l.1077.1544-.3419.5884-.0134.2786.2154.2998-.3442.2831-.111.4152.0378 1.1124.222.5651.0433.2565.0133.3286.0333.1998.1211.2665-.0156.192-.0921.111-.1421.0411-.1266.07-.0566.1954.4985 1.9261-.2199.2998v.1787l.4308 1.2968-.6506.7271-.5129 1.1935.2509.0311 1.4055.0788.2853-.1354.2565-.2498.3353-.6118.2387-.6461.1232-.1621.2476-.1654.2531-.0777.5462-.0489.262-.1565.0389-.4296.0477-.2543.2587-.736-.0344-.2043-.1166-.1288-.4696-.0777-.2698-.0811-.2187-.111-.1421-.1676-.0444-.2209.1421-.2654.3075-.2764 1.189-.6117.5107-.3731.9193-1.0924.3042-.252.7771-.2387.3198-.181.6372-.6272.6017-.1977-.3985-.2375-.1399-.0611-.1654-.1554-.1044-.1255-.1177-.6217-.7505-.5617-.1532-.2032-.2309-.2354-.2853-.1221-.4019-.0766-1.7752.0444-.2731-.0255-.2087-.0789-.0289-.2009-.5329-.1088-.3453-.1421z"/><path d="m22.8153 25.9469-.6772-.0288-.635-.1843-.272.0832-.7017.3009-.433.2398-.222.0955-.3175.212-.3231.3231-.3452.5462-.1433.3975-.0566.3363.0156.2299-.0478.2153-.1832.211-1.3922.6328-.8526.9736.0289.201.2087.0788.2731.0255 1.7752-.0444.4019.0766.2853.1222.2309.2353.1533.2032.7504.5617.765-1.0302.2376-.1876.323-.1932.2665-.1255.1743-.1798.1021-.2132.0688-.5073-.212-.4941-.2687-.4518-.141-.1277-.1676-.1132-.0977-.1644.0155-.2386.1965-.3764.9293-1.0525z"/><path d="m20.5296 26.1181-.4397-.6228-.4019-.3276-.1021-.1987-.0888-.3164-.1366-.061-.1454.0943-.1466.2054-.2431.1432-.3331.05-.5928-.0333-.3364.0666-.6217.343-.4907.141-.514-.0355-.3553.0278-.2909.1254-.1998.2542-.1432.3742-.3142 1.5132.0355.3686.1233.3908.2831.6516.051.2099-.0166.141-.0911.2409.332.4163.3453.1421.5329.1088.8526-.9736 1.3922-.6328.1832-.211.0477-.2154-.0155-.2298.0566-.3364.1432-.3974.3453-.5462.323-.3231.3175-.212.2221-.0955z"/><path d="m20.9811 17.5546-.101-.0344-.353-.3597-.1943-.1132-2.1949-.5141-.1887-.2398v-.0011l.0022-.0033v-.0011l-.0866-.0666-.1055-.0189-.1199.0266-.1276.0633-.0034.0011-.353.0911-1.1235.7116-.6772.6084-.3276.171-.4829-.0578-.0022-.0011-.3764.272-.3086.4108-.181.1621-.1454.061-.0444.0811-.0111.1987.0821.1754.1732.1022v.1509h-.141v.1821l.1166.2176.0633.6251.1132.2997-.0843.1321-.0289.0134-.0111-.0567-.0278-.0888-.0477.0866-.0933.2598-.1265-.1654.0699.5073.0566.1555h-.2786v.1643l.1077-.0122.0843.0033.1455.2165.0422.1021.192.201v.151l-.1831.0555-.1222.1287-.0766.1644-.0377.162.0755.0544.0466.0445.0555.0333.0899.0188v.1799l-.1287.0877-.1388.0633.1265.1643-.2786.1821.0444.0421.0422-.0077.0333.0155.0322.1133h-.1521v.1509l.1265.1266.0189.0977-.0866.0677-.1987.0378.091.2675.0489.0789.0988.1054.0844.1499.0621.1854.0333.2209h-.1265v-.1665h-.1521v.1665l.1099.2354-.0167.725.1854.3597-.091.2808-.0067.4608.0766.4607.1621.282-.101.0577-.0777.0655-.0555.0888-.0333.1344h.2675l-.2642 1.1401.131-.0144 1.4211.1721.091-.2409.0167-.141-.0511-.2098-.2831-.6517-.1232-.3908-.0356-.3686.3142-1.5132.1432-.3741.1999-.2543.2908-.1254.3553-.0278.514.0355.4907-.141.6217-.343.3364-.0666.5929.0333.333-.05.2432-.1432.1465-.2054.1455-.0943.1365.061.0888.3164.1022.1988.4019.3275.4396.6228.7016-.3009.272-.0832.6351.1842.6772.0289.1599-.2109.0266-.1854-.0633-.3586-.1043-.2409-.1077-.1943-.0256-.1976.07-.1965.2931-.2421.2531-.0433.2309.0811.3742.2942.1776.0377.1465-.051.1421-.6284-.2509-1.9862-.2464-.0088-.0733-.0167-.0044-.1043-.1144-.282-.9203-1.4044-.1921-.4053-.0156-.4563.0622-.4129-.0955-.2754-.4773-.0377-.2954.0555-.2131-.0755-.1799-.1699-.1854-.232.0755.0122.0655-.0999.0278-.1576-.0322-.161-.0777-.0422z"/><path d="m22.7996 101 .5596-.021.524-.214 2.2159-1.8345 2.1605-1.7919 2.3758-1.9706 1.5743-1.3078 1.3122-2.2259 1.2723-2.1638.9404-1.5976 1.129-1.9251.4885-.5273.5607-.282 1.7718-.3697 1.8185-.3775 2.9387-.6139 2.9154-.6095 2.7344-.5707 2.407-.5007.4396-.3919.9081-2.2215.675-1.6453.735-1.7918.5995-1.4677.2664-.4286.473-.3963 2.2193-1.2501 2.4679-1.39 1.4955-.8404.1365-.0843.02-.0078.0078-.0089-.0067-.0167-1.0114-1.1901-2.2392-2.6389-2.2449-2.6412-2.2426-2.6467-2.2403-2.65-.0655-.0755-.0633-.0766-.0655-.0766-.0633-.0755-2.6578-2.8854-2.619-2.8433-21.8587-.0322.342 2.3448.4785 1.3289-1.0414 3.3317-2.3936 4.4741-1.5543 2.6289-.7449.2776-.5484-.2154-.2154-.0177-.2187.0477-.2543.1776-.202.1999-.2887.1831-1.4488.3486-1.9084.2587-.695-.0633-2.0306.0644-.8337-.1254-.8182.0022-.1177 1.4821-.4186 1.8785-.90587 2.8865.04107 2.6633-.16542.6884-1.19457 2.3669-.23425 1.1735-.04774.6206.09548.443.10769.2309.15764.272.18763.2453.24979.2321.27977.1654.33528.111.3264.0144.3042-.0388.2642-.0966.2631-.0533.5252-.0155.6095.1199.3796.1421.4008.2231.3953.3475.3674.3952.3042.4741 1.0747 2.438 1.3245 5.4122 1.0114 7.4239.0466.2007.0022.007 1.1635.202 2.3547.407z"/><path d="m22.9497 63.803-.8749-.8826-.8659-.6451-.1621-.1809-.212-.3586-.1588-.1743-.2132-.1277-.7405-.3441-.2564-.1843-.191-.1843-.0855-.1688-.0577-.1454-.1354-.121-3.2751-1.3112-1.743-.0866-.2931-.1143-.2842-.1876-.2287-.2043-.231-.0689-.2597-.0177-.362.0522-.2598-.0111-.1931.0621-.1266.1865-.0888.4852-.2065.6173-.1299.9681-.1332.2353-.2287.1399-.3642-.0266-.2842-.0777-1.02136-.7195-.15765-.1076-.24868.2409-.25979.5384-.0544.5396.01.5318-.06995.5262-.11768.2265-.34638.3119-.15876.1877-.13433.2875-.06994.2676-.09326.6006-.15654.564.30642.2353 1.3944 1.0036.3153.1655.26534.242.24424.4252.24982.3275.2897.1432.231.0855.4662.02.8183-.0022.8337.1254 2.0306-.0644.695.0633 1.9084-.2587 1.4488-.3486.2886-.1832.2021-.1998.2542-.1776.2187-.0478.2154.0178.5485.2154.7449-.2776z"/><path d="m23.5771 35.4774-.2698-.0844-.3952-.2853-.6883-.8415-.4918-.4552-.4697-.6184-.6017.1976-.6372.6273-.3198.181-.7771.2387-.3042.252-.9192 1.0924-.5107.373-1.1891.6118-.3075.2764-.1421.2653.0444.221.1421.1676.2187.111.2698.0811.4696.0777.1166.1288.0344.2042-.2587.7361-.0477.2542-.0389.4297.7683-.201 1.0325-.0033.3142-.0788.2564-.1066.1366.0222.1454.1377.0478 1.7397-.0445.2253-.1199.221-.3519.4229-.101.1843-.0289.2076.0322.2332.1577.6184.1521.3763.8881.9614.1232.3031-.0155.2287-.0699.1732.0188.1899.121.1487.161.1577.0378.1465-.0633.1521-.282.4108-.1354.2609-.3498 1.0835-.0888.1555-.1554.1632-.1232.0966-.2221.212.4974.8782.1399.4552.0533.3141-.0378.2154-.1643.4763-.0766.3386-.0499.4652.0721.2864.2032.1821 6.1816.1499 21.8587.0322-.04-.0433-2.6578-2.8921-2.6589-2.8954.7849-.2354-.01-.0044-.0633-.0344-5.722-5.8652-.3797-.0888-.3497.0955-.9703.6006-.383.0122-.4752-.1799-.8881-.6106-.9159-.8559-.5507-.6317-.1277-.2632.0278-.2253.1565-.2143.4596-.3775.5729-.3597.1876-.2942-.0344-.3797-.5873-.766-1.1601-1.2778-.4208-.3564-.4285-.1921-2.1616-.1898-.4352.0944-.2431.212-.3897.4752-.2642.1632-.4208.0788-1.3156-.0089-1.0025.3209-.3286.0288-.252.0533z"/><path d="m79.1459 1-5.0037 3.11522-4.3686 2.75995-1.7341 1.09465-3.5571 2.24148v.0011l-2.6023 1.6786-3.5005 2.2582-3.5004 2.2526-1.8807 1.2079-1.622 1.0425-3.4971 2.2481-2.2615 1.4499v.0011h-.0033v.0011l-3.1275 2.0439-3.2839 2.2559-.2609.09-.2876-.0111-1.3044-.3453-.4441-.0133-.3542.2098-.7371-.5607-2.7955-.3419-.745-.091-.3319-.2087-1.1513-.1166-.403-.1232-.302-.1721-1.794-1.7064-1.3179-.9115-.665-.6716-.222-.1222-.1055.0344-.232.211-.1021.0488-.1222-.0222-.2109-.0832-.1288-.0134-.756.1022-.292-.0089.2509 1.9861-.1421.6284-.1466.0511-.1776-.0378-.3741-.2942-.2309-.081-.2532.0433-.2931.242-.0699.1965.0255.1976.1077.1943.1044.2409.0633.3586-.0267.1854-.1599.211-.2875.5884-.9292 1.0524-.1965.3764-.0156.2387.0977.1643.1677.1132.1409.1277.2687.4519.2121.494.4119.1399.1743.1887.0732.1665-.0322.1566-.0921.1476-.06.1743.0167.2287.101.1666.2098.1476.2187.0389.241-.0522.2053-.1143.2787-.2776.2043.0267.2564.1598.4974.3797.3131.0844.2831-.0233.4241-.1732.212-.0511.2554-.0333.826.0799.8248.4086.3575.262.3153.0933.3064-.0078.2632-.121.2153-.1666.2631-.1187.3775-.0389 1.1036.1199.3574.1887.6506.6151.7194.4185 25.3614 8.8217.03.0111.0111.0044 3.8623-1.1613.7372-.2142 3.858-1.118 4.5917-1.3334 4.5907-1.3355 4.5951-1.3356 2.3203-.675.0022.0011v-.0044l.7072-.2998 2.4258-2.3125.3975-.3009.2065-.0677-.0045-.1854 2.458-2.1005.5218-.7638-.4274-1.6298-.302-.7427-.4196-.2465-3.8702 1.0725-.2065-.1166-.1521-.363-.9969-3.4783-.0278-.0388-.0078-.03.0078-.0178.0278-.0089 1.5775-.4973-1.3733-5.0681-.9647-3.5659-.9304-3.4561-.7083-2.59341-.8482-3.13076z"/><path d="m11.1883 67.5699-.4663-.0199-.2309-.0855-.2898-.1432-.24977-.3276-.24425-.4252-.26533-.242-.3153-.1654-1.39441-1.0036-.30641-.2354-.00111.0045-1.19569 2.4391-.8826 2.9042-.09659.5651-.35526.9637v.5695l.10102.2432.29421.4796.05662.3363-.04441.3298-.11213.2542-.13656.2431-.12323.2965-.19206 1.2323-.14544.4063-.00888.6761.41854 1.4455v.745l-.33194.7949-.87373 1.3144-.23647.9304-.01222.2842-.0766.2087-.10103.1821-.07993.2043-.14988.8004-.01887 1.431-.0866.4785-.94811 2.5713-.15209.5861-.10769 1.3223-.19429.5862-.27311.4441-.14543.5151-.08771.6395.09548-.0134.02775.0345v.0621l.01666.0766h.27977l.42409.4297.01999.373-.44408.9614-.14544.614-.13433 2.136-.26645.1887v.0011l2.26702.3975 2.42579.423 3.17739.5506 2.8399.4941 3.0319.524 2.4158.4205-.0022-.006-.0466-.2013-1.0114-7.4239-1.3245-5.4123-1.0747-2.438-.3041-.474-.3675-.3952-.3953-.3475-.4007-.2232-.3797-.1421-.6095-.1199-.5251.0156-.2632.0532-.2642.0966-.30418.0389-.3264-.0144-.33528-.1111-.27977-.1654-.2498-.232-.18762-.2454-.15765-.272-.10769-.2309-.09547-.443.04773-.6206.23426-1.1734 1.19457-2.367.16542-.6883-.04108-2.6634.90596-2.8865.4185-1.8784z"/></g></svg>