<svg fill="none" height="109" viewBox="0 0 84 109" width="84" xmlns="http://www.w3.org/2000/svg"><g fill="#000" stroke="#3db96d" stroke-width=".5"><path d="m29.0191 78.5452.3243-1.8523-.0513-.1724-.0503-.2432-.2052-.0975-.2771-.0955-.1714-.1057-.2534-.2422-.076-.2165.0164-.1857.1098-.3992.0514-.5511.0246-1.3187-.1601-.509-.2196-.3233-.2453-.0452-.1775.0493-.1694.0975-.1344.1201-.1272.0626-.1355.0236-.1344.0041-.4906.0975-.2617.0102-.1108.0257-.1006.0554-.0677.0852-.0513.0975-.0677.081-.1006.0462-.2402.0657-.0677.0759-.1098.196-.0759.0729-.2617.1827-.1098.0369-.2453.0236-.3633.0914-.2955-.0165-.1355.0134-.2032.0811-.1016.0543-.6363.2351-.3889.0892-.5408-.0287-.1437.0226-.0841.0687-.0596.0965-.0841.0883-.2114-.0206-.6004.0185-1.3382-.2483-1.4028-.7307-1.6092-.0688-.2698-.1139-.0021-.001-.7953 2.1694-.115.8436-.6126 1.9344-1.4244 1.5004-2.8345 2.1838.2217.8189-.3459.8077-.99334 1.4942-.20422.9082-.03592 1.7589-.13341.86-1.02931 2.8519-.81996 1.213-1.16682.8733 1.13501 1.6553-.23911 1.9448-1.64197 3.5603-.19498-.419-.17754-.085-.32839.06.32839.444-.37252.551-.33763.742-.38997.648-1.20684.509-.58598.573-.48746.733-.33763.728.04515.199v.165l.07902.079.24835-.037-.06568.286v.106l4.36251.327.23705-.101.60343-.469.35405-.134.32736.024.77173.2.38894.028 2.01759-.668h.6639l.2823.13v-.003l.0759-.466.0421-.743-.0247-.169-.0256-.347.0164-.145.076-.305.0174-.3.0164-.145.6681-1.781.1519-.237.2966-.034.4135.092h.1355l.1098-.052.0924-.061.2545-.247.1344-.211.0965-.2515.042-.6608.0503-.1673.2289-.0554.5069-.0031.1519-.0318.1693-.076.5327-.3314.0759-.0965-.0759-.2319-.1191-.1109-.1437-.0892-.1436-.0555-.1355-.0728-.1006-.1109.0165-.1467.1015-.1601.3038-.1899.2207-.0975.354-.1251.2627-.2022.3038-.3233 1.5075-1.9149.2535-.2494.1775-.3181.1016-.3428-.0082-1.0611-.0431-.2627.0431-.3643.5234-.7328-.8446.1612-.2453.1837-.2196.0369-.3551-.0164-1.4398-.2699-1.057-.3438-.8528-.9103.2453-1.0313-.1355-.4187-.1354-.1314-.1437-.1026-.586-.3325-.1436-.0236-.1437.0205-.6086-.0277-.1518-.0267-.153-.0636-.1436-.0852-.118-.0924-.0503-.0656.1098-.0678.5151-.0236.2032-.0964.1601-.1899.1776-.4064.0677-.2319.0257-.1868-.0083-.0862.0165-.2771.0338-.1508.1437-.1622.2617-.1518.5521-.156.2791.0287.195.0965.0842.1457.1016.2884.0677.1334.118.119.2535.2012.0934.1108.0585.1149.1272.193.118.0718.1181-.0349.0933-.1693-.0677-.5562.0852-.3171.98-1.7929.0452-.1498.0164-.1621-.0113-.1365-.0841-.1068-.118-.0143-.2874.0811-.1098-.0339-.0256-.1037.0759-.2073.4423-.7193.1242-.2628.1375-.199.1529-.1119.6168-.0544.3458-.0636.1437-.0749.1272-.1314.0503-.314-.0585-.1827-.1272-.1211-.1355-.0677-.0842-.0842.5245-.314 2.3603-.5439.4146.0913.3458-.0051.1693-.0359.313-.1047.6086-.3458.1519-.0596.1714-.0369.313-.0051.1436-.0257.1519-.0605.1355-.1119.1016-.1211.118-.1621.0092-.0134.1437-.0677h.118l.1016.04.0421.0236.0164.0144v.0031l.0092.0102-.0431.5542-.2616 1.6173-.0083.1755.1776 4.2373-.1098.8764.1683.5316.8456 1.8872.6085-1.7404.273-.4382.2289-.0657.1098-.0493.1857-.1108.1016-.038.118-.0041.1181.0277.1015.0513.1355.0503.1693.0205.312-.0472.1776-.1046.1354-.1694.0595-.1313.2361-.6979.941-.9.3212-.1293.2196-.2032.4567-.8507-.1857-1.4008-.2453-.3479-.2699-.5962-.0934-.2484-.2196-.8487z"/><path d="m14.3864 108.163 3.0766-.804 2.6087-1.123 1.6738-.142.2699-.99 1.0149-1.824.467-1.093.2935-1.659.1293-3.2124.4228-1.4378.4956-.8877.3213-.8908.3663-.6188.6363-.0718.3161.3869.9862 1.564.6927.512.0051-.002.0113.0082.3161.2709.002-.0143.037-.2566v-.0031-.0031l-.1683-1.1986.4843-.4916.782-.1734.8631-.1898 1.0878-.8754 2.073-2.1787.9636-.2648.7214-.0708.7779-.2196.7543-.3356.6486-.4125.8897-.9955 1.0878-2.1838.8395-1.0047 1.3095-.785-.036-.0093-.8877-.2401-2.504-.3233-.1919-.1559-.2309-.2833-.5326-1.1411-.1611-.4711-.312-.4053-1.1073-.663-1.0683-.3571-.2699.1149-.3725.2586-.7522.7687-.5829.7194-.4567.7409-.5347.6886-.4228.1683-1.0395-.3612-.4567.8507-.2196.2032-.3212.1293-.9411.9-.236.6979-.0595.1313-.1355.1693-.1775.1047-.312.0472-.1693-.0205-.1355-.0503-.1016-.0513-.118-.0277-.118.0041-.1016.038-.1858.1108-.1098.0493-.2288.0656-.273.4382-.6086 1.7405-.8456-1.8872-.1683-.5316.1098-.8764-.1775-4.2373.0082-.1755.2617-1.6173.0431-.5542-.0092-.0103v-.003l-.0165-.0144-.042-.0236-.1016-.04h-.118l-.1437.0677-.0093.0133-.118.1622-.1016.1211-.1354.1118-.1519.0606-.1437.0256-.313.0052-.1714.0369-.1518.0595-.6086.3459-.313.1047-.1693.0359-.3459.0051-.4146-.0913-2.3603.5439-.5244.314.0842.0842.1354.0677.1273.1211.0585.1826-.0503.3141-.1273.1313-.1436.0749-.3459.0637-.6167.0544-.153.1118-.1375.1991-.1241.2627-.4424.7194-.0759.2073.0257.1037.1098.0338.2873-.081.118.0143.0842.1067.0113.1365-.0164.1622-.0452.1498-.9801 1.7928-.0851.3171.0677.5563-.0934.1693-.118.0349-.118-.0719-.1273-.1929-.0585-.1149-.0934-.1109-.2534-.2011-.118-.119-.0678-.1335-.1016-.2883-.0841-.1458-.195-.0964-.2791-.0288-.5522.156-.2616.1519-.1437.1622-.0339.1508-.0164.2771.0082.0862-.0256.1868-.0678.2319-.1775.4064-.1601.1898-.2032.0965-.5152.0236-.1098.0677.0503.0657.118.0924.1437.0852.1529.0636.1519.0267.6085.0277.1437-.0205.1437.0236.586.3325.1436.1026.1355.1313.1355.4187-.2453 1.0314.8528.9103 1.057.3437 1.4398.2699.3551.0165.2196-.037.2453-.1837.8445-.1611-.5233.7327-.0431.3643.0431.2628.0082 1.0611-.1016.3427-.1776.3182-.2534.2493-1.5076 1.915-.3037.3233-.2627.2021-.3541.1252-.2206.0975-.3038.1899-.1016.1601-.0164.1467.1006.1108.1354.0729.1437.0554.1437.0893.119.1108.076.232-.076.0964-.5326.3315-.1693.0759-.1519.0319-.507.003-.2288.0555-.0503.1672-.0421.6609-.0964.2519-.1345.211-.2545.246-.0923.062-.1099.051h-.1354l-.4136-.091-.2966.034-.1518.237-.6681 1.78-.0164.146-.0175.3-.0759.304-.0165.145.0257.348.0246.168-.042.743-.076.466v.003l.3151.145.6085.495.5408.661.3777.771.507.663z"/><path d="m36.8112 34.2153-.9883-.1427-3.6205-1.84-1.4059-.1396-.0647-.0267-.001-.001-.0236.0441-.7717.5634-.1724.4834v2.2526l.1724.9297.7717 1.448.1734.7718-.2391 2.0432-.8918 2.8847.0134 1.6061.1724.2463.2935.1867.2524.311.0267.5993-.2268.2699-.9041.0133-.3602.1283-.3941.6527-.6568 1.5732-.4659.5511.3418.0318.08.0996-.0185.2719-.2832.5377-.5193 1.3075-.3458.4412-.7943.2833-.5111-.0349-.0082.2986-.6342 1.9478-.6004.0544-.1436.1632-.2022.3017-.195.1221-.7265.0267-1.0386-.2196-.0934 2.7226-.2175 1.2981-2.151 5.281.0349.7861-.9185.5921-.6383 2.6898-.8477.7409.3418.4475-1.2859 3.5117.002.001.2699.114 1.6092.0687 1.4028.7307 1.3382.2483.6004-.0184.2114.0205.0841-.0883.0595-.0964.0842-.0688.1437-.0226.5408.0288.3889-.0893.6363-.235.1016-.0544.2032-.0811.1354-.0133.2956.0164.3633-.0913.2453-.0236.1098-.037.2617-.1826.0759-.0729.1098-.196.0677-.076.2402-.0656.1005-.0462.0678-.0811.0513-.0975.0677-.0852.1006-.0554.1108-.0256.2617-.0103.4905-.0975.1345-.0041.1354-.0236.1273-.0626.1344-.1201.1694-.0975.1775-.0492.2453.0451.2196.3233.1601.509-.0247 1.3187-.0513.5511-.1098.3992-.0164.1858.0759.2165.2535.2422.1714.1057.2771.0954.2052.0975.0503.2432.0513.1724-.3243 1.8524.4762-.4003.2278-.2432.4064-.5736.1437-.2915.1437-.4094.7522-3.1444.628-1.683.3633-.6917 3.1464-4.771.5327-.2842.2114-.1652.2791-.39.4474-.4977.0431-.1827-.0092-.1406-.8446-.862 1.4963-2.1859.4053-.002.6199.0697.16-.003.1612-.0206.1683-.0656.1436-.1016.1191-.1324.3551-.5881-.2371-.4854-1.8031-1.294 3.5446-4.2322.9236-1.6215.2371-.5387.0421-.1519.6085-.7522 2.4619-2.2464.6342-.2905 1.524-2.3223 2.4424-4.9116.1971-3.9982.0903-.4679.4423-1.094-.5265-.276-.3386.1087-.3551-.0215-.3715-.0718-1.8195-.8918-.3048-.2863-.1016-.0565-.2781-.0985-.1529-.0164-.1437.0308-.1262.197-.1355.3233-.1016.1159-.1262.0719-.1529.0287h-.1437l-.4053-.118-.3295-.1601-.3971.0195-.313-.1026-1.0847-.6856-.4228-.1857-.6845-.5295-.2956-.0852-.4084-.0298-.7266.0719-.6845.1631-.3889.155-.2453.0297-1.3464-.0461-.7861.1765z"/><path d="m25.4499 52.5629-.7758-.0565-.5285.2966h-.3725l-.3325-.2966-.626-.2719-.7184-.118-.586.198-.2924.5183.1816.5398.3376.6311.1776.7748-.0134.4782v.001l1.0386.2197.7266-.0267.1949-.1221.2022-.3018.1437-.1631.6003-.0544.6342-1.9478z"/><path d="m66.9281 1-1.1329.79533-.1796.50696-.0226 1.29715-.2032.60958-.5018.54185-.5408.24629-3.2901.18473-.3325-.11699-.6425-.48233-.276-.12007-.3325.0821-.6537.39715-.236.07594-2.384-.17241-1.3577-.09852-1.4429.20525-1.2448-.03387-1.1832-.34583-.9524-.77686-.4002-.18883-.4792-.13341-.6938.02566.585.75223.3376 1.17298.1509 1.39875-.0442 3.10947-.3068.9318-.5583.587-.8784.6404-2.9155 2.7862-4.3256 1.133-1.0119-.2699v.4125l.9904 1.5978-.9503 1.29-3.0213 1.6646-.7317 1.3597-.8251 2.0966-.8917 1.3772-.9319-.7727-1.2817 1.1196-.666 1.7476-.2576 2.0617-.0308 2.074-.1498.2966.001.0011.0646.0266 1.406.1396 3.6205 1.84.9883.1427.195-.0072.786-.1765 1.3465.0462.2452-.0298.389-.155.6845-.1631.7265-.0719.4085.0298.2955.0852.6845.5295.4228.1857 1.0848.6856.313.1026.3971-.0195.3294.1601.4054.118h.1437l.1529-.0287.1262-.0719.1016-.1159.1354-.3233.1263-.197.1436-.0308.153.0164.2781.0985.1016.0565.3048.2863 1.8195.8918.3715.0718.355.0216.3387-.1088.5264.276 1.251-.1077.1519-.04.1355-.0739.2114-.2279 1.135-1.9344.1693-.5819.1857-1.7015 2.0289-2.585 1.6676-1.7395.6086-2.1417.1098-.2217.1939-.274.4742-.4946 1.1093-.8805.4485-.4485.2699-.3284 1.4962-3.091.0534-.1652-.2227-.8128 1.0426-1.3444.076-.159.0338-.1468.0083-.2863.0174-.1303.0339-.1088.0585-.1067.2114-.2833 2.429-1.8831.1263-.1437.6845-.2771 1.1473-.1436.0195-.0021-.5439-1.0262.9123-.9749 1.4932-.8108 1.0652-.84146.2483-1.03957-.0677-.97492.1129-.7943.8056-.50285.8056.23295.5798.47207.3889-.30787.2145-2.08838-1.3187.42794-1.3525.02771-1.29-.44539-1.0991-.98928-1.2838-2.34288z"/><path d="m77.4478 18.0288-.3951-.2617-.7881-.9831-.9246-.4033-.7328-.6158-.5408-.8538-.3489-1.1052v-.0103l-.7492-.2658-1.4931-.119-1.5948.0728-1.059.3223-.1468.0461-.1519.0113-.1529-.0113-.1457-.0461-.155-.2935-.0195.002-1.1473.1437-.6845.2771-.1262.1436-2.4291 1.8832-.2114.2832-.0585.1067-.0339.1088-.0174.1304-.0082.2863-.0339.1467-.0759.1591-1.0427 1.3443.2227.8128-.0533.1652-1.4963 3.091-.2699.3284-.4484.4485-1.1094.8805-.4741.4947-.194.274-.1098.2216-.6085 2.1418-1.6677 1.7394-2.0288 2.5851-.1858 1.7015-.1693.5819-1.135 1.9344-.2114.2278-.1355.0739-.1519.04-1.2509.1078-.4423 1.0939-.0903.468-.1971 3.9982-2.4424 4.9115-1.524 2.3224-.6342.2904-2.4619 2.2464-.6085.7523-.0421.1518-.2371.5388-.9236 1.6214-3.5446 4.2322 1.8031 1.2941.2371.4854-.3551.588-.1191.1324-.1436.1016-.1683.0657-.1611.0205-.1601.0031-.6199-.0698-.4053.0021-1.4963 2.1858.8446.8621.0092.1406-.0431.1826-.4474.4978-.2791.3899-.2114.1652-.5326.2843-3.1465 4.7709-.3633.6917-.628 1.683-.7522 3.1444-.1437.4095-.1437.2914-.4064.5737-.2278.2432-.4762.4002.1468 1.5527.2196.8487.0934.2484.2699.5962.2453.3479.1857 1.4008 1.0396.3612.4228-.1683.5347-.6886.4566-.7409.5829-.7194.7522-.7686.3726-.2587.2699-.1149 1.0683.3571 1.1073.663.3119.4053.1612.4711.5326 1.1412.2309.2832.1919.156 2.504.3232.8877.2402.0359.0092 1.3608-.8158 1.0036-.5994 1.6902-1.4336.8672-2.0853-.7379-1.3279.6199-.8672 1.2848-.4167 1.2787.0165 1.0365-.4783 1.1217-.744.8394-.9923.1745-1.213-.4783-.74-.9133-.6793-1.0026-.5029-.7779-.2165-1.2736-.7153-1.2058-.2268-.7204-.4515.2083-1.3998.2197-.2227.7101-.2709.2586-.2545.1468-.6291-.1581-1.1884.079-.549.4054-.5839.9975-.9195.3325-.7471.7491-1.1248 1.8031-1.5475.7328-1.3988.5408-.7101.8733-.3643 1.0149-.2658.9462-.4095 1.955-1.2038.3612.2104.6927.8764.4393.2802 1.138-.0267.8795-.5316.7605-.6209.8281-.313.9462.1827 2.8006 1.3823 2.0566.4916 1.0477-.1693.6599-.8682-.1067-1.3485-.9411-.5819-2.1417-.3663-1.6061-1.2561-.3427-.4003-.35-.628-.0954-.2371 1.1658-2.3736.7502-1.1751.8558-1.0601 2.1695-1.9098 1.8144-2.3131 1.1493-.586.625.0544 1.172.4382.7501-.0369.8898-.4475.2986-.6085.1067-.7738.3161-.9308 1.0652-1.3515 2.4394-2.0956 1.2623-2.1253 1.5383-1.7036-.0298-.0656-.2914-.6425-1.3187-1.3115-.3551-.9492-.2586-1.2408.4105-.8528.5244-.7276.1128-.8579-.2822-.5131-.355-.0852-.3992.0308-.389-.1703-.5808-.6363-1.1771-1.6615-.2709-.5121-.1468-.5285.0452-.5428.1744-.3428.1981-.313.1457-.4556.1919-1.0837.0452-.7328-.2987-.5788-.8682-.627z"/></g></svg>