<svg fill="none" height="44" viewBox="0 0 340 44" width="340" xmlns="http://www.w3.org/2000/svg"><g fill="#ff5068"><path d="m33.2814 22.3083c1.3216 5.4568-.4773 11.3607-6.4647 14.0949-7.7673 3.5471-14.8744-1.1566-18.59659-9.2957-3.72246-8.1393-2.13549-17.074 5.03849-20.35021 5.4479-2.48788 10.7706-1.39995 14.8016 3.99211l5.2322-2.38963c-4.8951-7.994345-13.3522-10.51793-22.3063-6.42877-10.8959745 4.97593-13.61096 16.5762-8.48357 27.7876 5.12733 11.2115 15.22997 16.7623 26.39557 11.6633 9.5473-4.36 12.1605-13.0466 9.7234-21.5123z"/><path d="m49.5037.94101h-5.9768v41.80609h24.8031v-5.4343h-18.8263z"/><path d="m183.313 35.089c0 2.5913-.721 3.1224-1.807 3.1224-1.084 0-1.806-.5311-1.806-3.1224v-19.2452c0-2.2472.73-4.6161 1.906-6.30019 1.079 1.63749 1.707 3.91849 1.707 6.30019zm7.537-34.337058c-2.595 0-7.003.754638-9.344 2.420028-2.222-1.6125-5.105-1.84733-7.909-1.84733h-5.76v5.43981h5.76c1.376 0 2.494.07431 3.345.22156-2.049 2.50319-3.087 5.47689-3.087 8.85779v19.2452c0 3.8536 1.328 8.4479 7.651 8.4479 6.325 0 7.652-4.5943 7.652-8.4479v-19.2452c0-3.5493-.961-6.63534-2.862-9.19158 1.341-.33617 3.42-.57491 4.554-.57491 7.664 0 11.55 5.40579 11.55 16.06709v20.8197h5.846v-20.8197c0-6.8641-1.406-12.15409-4.175-15.7236-2.92-3.76133-7.368-5.668858-13.221-5.668858z"/><path d="m147.96 34.8991-10.319-33.89839-5.337-.059685-10.32 33.958075-9.37-33.958075h-6.524l12.573 41.484575h6.287l10.022-33.36526 10.023 33.36526h6.287l12.572-41.484575h-6.523z"/><path d="m95.291 21.6825c0-5.3235-4.3186-9.6388-9.6458-9.6388v-5.49352c8.3984 0 15.2138 6.76052 15.3008 15.13232zm6.999-12.7048c-.852-1.11225-1.813-2.13182-2.8629-3.04868-4.2228-3.68736-9.9045-5.684162-15.9232-5.066059-11.5069 1.181789-19.8764 11.461139-18.6938 22.959839.0482.4692.1169.9309.1949 1.3889 6.067 1.8911 14.5143 6.412 17.145 17.1074 1.8204.307 3.7105.3821 5.6364.1843 11.5068-1.1816 19.8766-11.4611 18.6936-22.9598-.41-3.9889-1.917-7.5992-4.19-10.5659z"/><path d="m236.259 19.6604-6.551-1.5619c-4.569-1.0813-7.394-2.5831-7.394-6.3672 0-4.32499 4.147-6.48741 8.415-6.48741 4.509 0 8.718 1.92198 8.957 7.86901h6.072c0-8.40957-6.432-12.975189-15.148-12.975189-8.958 0-14.609 5.766789-14.609 12.074189 0 6.6676 4.329 9.5509 10.1 11.0527l7.153 1.8021c4.93 1.2013 7.453 3.1234 7.453 6.6074 0 4.5652-3.605 6.9079-8.896 6.9079-5.77 0-10.64-2.8229-11.362-9.1905h-6.19c.42 7.6888 5.831 14.4168 17.552 14.4168 9.017 0 15.029-4.986 15.029-12.7349 0-6.3072-4.628-9.9712-10.581-11.413z"/><path d="m262.313 12.201 1.454-7.45889h.061l1.32 7.45889h3.735l2.517-11.894265h-2.615l-1.801 9.026665h-.063l-1.502-8.20145h-3.206l-1.62 8.20145h-.063l-1.685-9.026665h-2.612l2.345 11.894265z"/><path d="m277.096.306735h-2.638v11.894265h2.638z"/><path d="m283.151 12.2009h2.557v-9.50515h3.121v-2.389001h-8.798v2.389001h3.12z"/><path d="m294.316 7.3989h4.216v4.8022h2.573v-11.894297h-2.573v4.653617h-4.216v-4.653617h-2.569v11.894297h2.569z"/><path d="m309.873 9.7626c-1.882 0-3.197-1.44275-3.197-3.50847 0-2.06571 1.309-3.50885 3.182-3.50885 1.882 0 3.197 1.44314 3.197 3.50885 0 2.06572-1.309 3.50847-3.182 3.50847zm0 2.5211c3.256 0 5.804-2.64844 5.804-6.02957 0-3.38132-2.558-6.02955-5.819-6.02955-3.264 0-5.82 2.64823-5.82 6.02955 0 3.38113 2.562 6.02957 5.835 6.02957z"/><path d="m323.522 12.2836c3.013 0 4.812-1.9456 4.812-5.20464v-6.772301h-2.637v6.607241c0 1.29931-.379 2.84841-2.175 2.84841-1.823 0-2.206-1.5491-2.206-2.84841v-6.607241h-2.639v6.772301c0 3.25904 1.813 5.20464 4.845 5.20464z"/><path d="m331.202.306635v2.389125h3.12v9.50524h2.555v-9.50524h3.123v-2.389125z"/><path d="m260.079 22.4896h1.712c1.589 0 1.826.875 1.826 1.3965 0 1.1267-1.083 1.3632-1.991 1.3632h-1.547zm1.414-2.2732h-1.414v-2.2812h1.414c1.058 0 1.596.3863 1.596 1.1486 0 .4863-.167 1.1326-1.596 1.1326zm2.879.9399c.781-.4882 1.222-1.3276 1.222-2.3364 0-2.0842-1.921-3.1747-3.82-3.1747h-4.152v11.8941h4.499c2.46 0 4.051-1.3758 4.051-3.5047 0-1.3684-.684-2.45-1.8-2.8783z"/><path d="m274.71 25.1009c-1.881 0-3.197-1.4427-3.197-3.5086 0-2.0657 1.309-3.5083 3.18-3.5083 1.883 0 3.198 1.4426 3.198 3.5083 0 2.0659-1.307 3.5086-3.181 3.5086zm0 2.5211c3.255 0 5.803-2.6484 5.803-6.0297 0-3.3811-2.555-6.0294-5.82-6.0294-3.261 0-5.818 2.6483-5.818 6.0294 0 3.3813 2.564 6.0297 5.835 6.0297z"/><path d="m286.134 18.0504h1.645c.864 0 1.398.5162 1.398 1.3469 0 .8903-.574 1.512-1.398 1.512h-1.645zm6.409 9.4889-2.854-4.7398c1.263-.686 2.012-1.9567 2.012-3.4352 0-2.5553-1.947-3.7191-3.757-3.7191h-4.248v11.8941h2.438v-4.2409h1.102l2.46 4.2409z"/><path d="m299.2 25.0183h-1.249v-6.8522h1.249c2.063 0 3.346 1.2938 3.346 3.3765 0 2.1113-1.313 3.4757-3.346 3.4757zm5.951-3.4261c0-4.0863-3.085-5.9471-5.951-5.9471h-3.838v11.8941h3.838c2.866 0 5.951-1.8609 5.951-5.947z"/><path d="m316.453 18.0504v-2.4053h-7.956v11.8942h8.121v-2.4056h-5.616v-2.413h4.956v-2.4053h-4.956v-2.265z"/><path d="m322.571 18.0505h1.645c.862 0 1.397.5161 1.397 1.3468 0 .8902-.575 1.512-1.397 1.512h-1.645zm5.565 1.3137c0-2.5553-1.948-3.7192-3.754-3.7192h-4.251v11.8943h2.44v-4.2408h1.098l2.461 4.2408h2.847l-2.853-4.74c1.265-.6859 2.012-1.9565 2.012-3.4351z"/><path d="m336.481 20.4187c-.194-.0781-.373-.15-.529-.2202l-.059-.0275c-1.115-.5073-1.607-.7552-1.607-1.3181 0-.6567.644-.9511 1.282-.9511.775 0 1.384.3761 1.482.915l.025.1411h2.429v-.1713c0-1.5929-1.461-3.2406-3.905-3.2406-2.279 0-3.936 1.3906-3.936 3.3069 0 2.204 2.095 3.0207 3.626 3.6165l.233.0913c1.005.3873 1.772.7492 1.772 1.5729 0 1.0465-1.259 1.0992-1.511 1.0992-.405 0-1.739-.1166-1.943-1.618l-.021-.1477h-2.471v.1712c0 2.3083 1.872 3.9836 4.451 3.9836 2.008 0 4.035-1.0735 4.035-3.4719 0-2.3814-2.019-3.194-3.353-3.7313z"/><path d="m262.109 36.7967c-.194-.0779-.373-.1498-.528-.2202l-.061-.0274c-1.113-.5073-1.606-.7551-1.606-1.3181 0-.657.645-.9509 1.283-.9509.776 0 1.385.3759 1.482.9146l.026.1415h2.428v-.1714c0-1.5928-1.46-3.2407-3.904-3.2407-2.282 0-3.937 1.3908-3.937 3.3069 0 2.2039 2.096 3.0206 3.626 3.6165l.233.0914c1.004.3871 1.773.7491 1.773 1.5728 0 1.0463-1.261 1.0993-1.513 1.0993-.405 0-1.737-.1169-1.945-1.618l-.02-.148h-2.467v.1714c0 2.3084 1.871 3.9836 4.448 3.9836 2.009 0 4.036-1.0737 4.036-3.4719 0-2.3813-2.018-3.1939-3.354-3.7314z"/><path d="m279.871 41.0498h-.063l-1.503-8.2012h-3.208l-1.616 8.2012h-.067l-1.681-9.0267h-2.614l2.345 11.8943h3.735l1.452-7.4589h.061l1.322 7.4589h3.734l2.517-11.8943h-2.616z"/><path d="m291.171 39.0987h4.954v-2.4052h-4.954v-2.2648h5.449v-2.4056h-7.956v11.8943h8.122v-2.4055h-5.615z"/><path d="m305.456 41.3965h-1.248v-6.8522h1.248c2.065 0 3.347 1.2938 3.347 3.3767 0 2.1112-1.312 3.4755-3.347 3.4755zm0-9.3734h-3.836v11.8943h3.836c2.868 0 5.953-1.861 5.953-5.9469 0-4.0865-3.085-5.9474-5.953-5.9474z"/><path d="m318.581 39.0987h4.954v-2.4052h-4.954v-2.2648h5.45v-2.4056h-7.958v11.8943h8.123v-2.4055h-5.615z"/><path d="m335.982 39.1764-4.509-7.1533h-2.444v11.8943h2.507v-7.3729l4.521 7.3729h2.431v-11.8943h-2.506z"/></g></svg>