<svg fill="none" height="156" viewBox="0 0 122 156" width="122" xmlns="http://www.w3.org/2000/svg"><g fill="#000" stroke-width=".5"><g stroke="#000"><path d="m84.1422 66.1833-.1699.1122-.7507 1.4377.1032.5273-.0831.2481-.4765.227-.1256 1.2879-.8463 1.0606-.7782.1922-.5213 1.5272.3063.5845-.5798.3798.0214.6282-.5731.4909-.7542 2.0943-1.3652.8147-.5073-1.589-.0112-.3262.1924-.4746-.2436-.4625-.0869-.091-.2671-.1692-.4385-.1845-.2378-.0601-.4937-.0554-.208-.0857-.1576-.1619-.3053-.5453-.0236-.1745.0278-.0891.1339-.1094.1799-.0699.067-.0901.0191-.1928-.0353-.162-.1762-.1854-.0317-.1234.0541-.1791.361-.7035.4555.4004.3537.2385.2067-.0459.1265-.0965.1187-.146.1008-.1671.1542-.5311.3896-.5261.1233-.0983.3783-.1871.1194-.1027.0442-.0839.0359-.0845.0154-.5618.0328-.1313.0378-.0876.2787-.3862.0704-.174.019-.2744.0309-.113.068-.0659.3121-.0536.4176-.2847.1145-.1055.0878-.1446.0165-.0806-.022-.0771-.2846-.3359-.2116-.6629.0231-.1068.0408-.0559.0835-.0183.0792.0264.2847.1795.232.033.0712-.049.0538-.0783.0053-.1429-.0314-.1576-.0395-.0764.0154.0067-.0033-.1392.0662-.3116.0467-.1403.2424-.3901.0976-.1989.04-.1658.0373-.4548.056-.1157.1535-.1581.2381-.1522.1529-.0233.2376.0642.3275.1612.441.128.2093.0092.1235-.1025.0604-.1453-.0021-.4239.0538-.2157.4242-.4932.0911-.1727.0873-.2887.0982-.2072.161-.201.3275-.2958.1142-.2238.0142-.1398-.0197-.0886-.077-.0896-.1458-.082-.2514-.055-.0766-.0421-.0252-.0381-.004-.071.0541-.0975.1613-.0936.3765-.0723.3477-.1489.946-.7242.3849.6042.0923.2528.0297.7253-.1629.7578.0227.2319.0576.1084.0759.0545.1126.0093.5364-.1152.2299-.0153.0838.0183.7109.389.5189.2459-.5139.3363-.6478.7096-.5806.8235-.3162.3023-.6967.3037-.4237.5257z"/><path d="m88.0737 53.97-.1609.0036-.4233.2427-.1399.0008-.2738-.0573-.1886.0628-.3264.0004-.337.1787-.0853.0066-.1075-.0406-.0585-.051-.1409-.2465-.0963-.0749-.1726-.0095-.2739.0843-.1529.0083-.3982-.1613-.1147-.0169-.0637.0212-.0868.0722-.1972.2895-.3461.2873-.0919.1851-.1015.2911-.1288.2046-.1467.1127-.3437.1792-.3082.2512-.2883-.5076-.1116-.3048-.1232-.5002-.037-.0622-.084-.0292-.2674.1547-.1548.0415-.1556-.0169-.1808-.0808-.3401-.2135-.3082-.3174-.3044-.1565-.1748-.2918-.1281-.1126-.3079-.1692-.4114-.1088-.2116-.0943-.1237-.1314-.0415-.0841-.0153-.0925.0249-.1101.3054-.3987.0662-.1742-.0001-.0816-.1986-.2692-.1892-.3302-.2134-.2584-.0925-.4568-.0742-.0943-.2274-.1935-.0212-.0895.0177-.0456.2375-.2405.1543-.2671.1801-.1707.1814-.3737.1678-.2572.3874-.2956.0408-.0708.0135-.1124-.0216-.0854-.0735-.0918-.1439-.1002-.2401-.1194-.2312-.0455-.4055.0298-.1931-.0299-.0847-.0725-.0454-.2.0208-.1104.0549-.0691.0767-.0437.0897-.0104.3588.0698.1988-.0247.1759-.1151.118-.1636.0779-.1868.0122-.1067-.0417-.2065-.1203-.1595-.1675-.1225-.087-.0352.3435-.2158.3028-.0376 1.3586.2223.8955.047.775-.0825.519-.1295.2117-.1438.8412-.2825.1908.0114.292.115.2622.4303.1992.7995.2446.5575.3117.4674.187.1853.3225.1883 1.5006.5338.5271.3172.2015.1936.2558.5939.0102 1.023-.3182.7518-.411.6339-.1123.566.0496.3676-.1038.1611z"/><path d="m77.5334 54.7995-.5007-.1732-.5439-.1209-.3023-.123-.221.0483-.2795.1198-.3724.1025-.0987.1189-.1326.0995-.4266-.0897-.2975.1286-.1349-.0264-.2501-.1615-.3652-.7387-.0317-.3874-.0619-.1752-.0274-.4729-.1775-1.3984.0821-.0084.2311-.1885.4094-1.0102.5388-.8626.6141-.3836.3198-.1265.9077.0928.3019-.0768.5927-.7628.6279-.5301.6144-.7632.3853-.3848.1927-.1183.087.0352.1675.1225.1203.1595.0417.2065-.0122.1067-.0779.1868-.118.1636-.1759.1151-.1988.0247-.3588-.0698-.0897.0104-.0767.0437-.055.0691-.0207.1103.0454.2001.0847.0725.1931.0299.4055-.0298.2312.0455.2401.1194.1439.1002.0735.0918.0215.0854-.0134.1124-.0408.0708-.3874.2956-.1678.2572-.1815.3737-.18.1707-.1543.2671-.2375.2405-.0177.0456.0212.0895.2274.1935.0742.0943.0925.4568.2134.2584.1891.3302.1987.2692.0001.0816-.0663.1742-.3053.3987-.2302-.2702-.128-.2391-.2313-.2795-.1939.3172-.0966.2789.0182.1393.225.4131.0258.0965-.0159.2097-.1296.2728-.1189.1502-.113.0656-.3042-.0083-.1095.0634-.1053.1452-.0445.1588.0768.3019z"/><path d="m90.9122 56.4566-.3923.5567.0576.3723-.043.2305-.3613.4437-.2204.1774-.1708.2512-.1216.7086-.3535.3002-.1412.2296-.0823.5811-.516.6634-.1626.5305-.2737.5372-.0739.3028-.1866.3901-.2274.2377-.5189-.2459-.7109-.389-.0838-.0184-.2299.0154-.5364.1151-.1127-.0092-.0758-.0545-.0576-.1084-.0227-.2319.1629-.7578-.0297-.7253-.0923-.2528-.3849-.6042.0502-.2692.1342-.474.0702-.3929.0167-.2221-.0351-.1511-.1511-.1581-.2651-.1616-.443-.0391-.4133-.1463-.4047-.0685-.183-.1142-.0577-.1341.0102-.3075-.0271-.1872-.0607-.1252-.2414-.3625-.106-.3552-.0356-.2394.3081-.2512.3438-.1792.1466-.1128.1288-.2045.1016-.2911.0919-.1852.3461-.2872.1972-.2896.0867-.0722.0637-.0211.1147.0168.3983.1613.1528-.0083.274-.0843.1726.0095.0962.0749.1409.2466.0586.0509.1074.0406.0853-.0065.3371-.1788.3264-.0003.1886-.0628.2738.0572.1399-.0008.4233-.2426.1609-.0037.3183.2589.4849.119.615.3916.2863.3069.5973.8534z"/><path d="m74.5671 61.5177.79-.3056.396-.0911.8284.0256.4489.1776.1371.0191.0966-.0151.1486-.0751.1199-.1111.1551-.2537.0271-.0916-.0048-.2259-.106-.2586-.1162-.1444-.2648-.2215-.1966-.2616-.1318-.1061-.1545-.0742-.0822-.0175-.2859.0045-.131-.037-.2086-.144-.1723-.2218-.0542-.1515-.0231-.1978.019-.2337.1051-.5722-.0066-.1262-.0567-.1507.1771-.1767.4234-.2427.3491-.2962.4878-.581.1378-.2015.1598-.3326.0901-.5723-.0332-.2101-.1019-.2434.0552-.378-.0768-.3018.0445-.1589.1052-.1452.1096-.0633.3042.0083.113-.0657.1189-.1502.1296-.2728.0159-.2097-.0258-.0964-.225-.4131-.0183-.1393.0967-.2789.1939-.3172.2313.2794.128.2391.2302.2703-.0249.11.0152.0925.0416.0841.1236.1315.2117.0943.4114.1087.3078.1692.1281.1126.1748.2919.3045.1565.3081.3173.3402.2136.1808.0808.1555.0168.1549-.0415.2673-.1546.084.0292.0371.0621.1231.5003.1116.3047.2884.5077.0356.2394.106.3552.2414.3625.0607.1251.0271.1873-.0102.3074.0577.1342.183.1142.4047.0684.4133.1464.443.0391.2651.1616.1511.1581.0351.1511-.0167.2221-.0702.3929-.1342.474-.0502.2692-.946.7241-.3477.149-.3765.0723-.1613.0935-.0541.0975.004.071.0252.0382.0766.042.2514.0551.1458.082.077.0895.0197.0886-.0142.1399-.1142.2237-.3275.2959-.161.201-.0982.2072-.0873.2886-.0911.1727-.4242.4932-.0538.2158.0021.4238-.0604.1454-.1235.1025-.2093-.0092-.441-.1281-.3275-.1612-.2376-.0642-.1529.0233-.2381.1522-.1535.1582-.056.1156-.0373.4549-.04.1657-.0977.199-.2423.39-.0467.1404-.0662.3116.0033.1392-.0154-.0068-.1667-.094-.2727-.2562-.1578-.0611-.4578.1091-.0859-.011-.0691-.0549-.0914-.2394-.0291-.3065.016-.1131.1379-.3689.0126-.1407-.0154-.0626-.1378-.2297-.6622-.7707-.1643-.1056-.2846-.072-.1144-.0768-.078-.1287-.096-.2464-.0727-.0784-.2875-.1339-.2664-.1666-.3581-.1789-.0721-.1017-.0856-.294-.0752-.0778-.7343-.0699-.202-.0737z"/><path d="m75.8433 57.6564-.53-.2266-.1614-.0996-.1865-.1527-.2614-.2496-.3248-.4558-.2535-.2558-.2207-.2904-.0544-.0508-.0902-.037-.1132.014-.0568.0316-.3136.3424-.0907.0679-.696.4028-.208.1781-.1307.0554-.5784.0802-.2091.0016-.1442-.0253-.4618-.1701-.6819-.0825-.2106.0414-.3022.1109-.1956-.0142.0913-.1211.4715-.2963.2855-.2901.2078-.4379.3262-1.0519.0315-.4002-.0511-.7848.2055-.3856.2684-.3535 1.1556-.8456.7-.3318.2495-.0233.1775 1.3984.0274.4729.0619.1752.0317.3874.3653.7387.25.1615.135.0264.2974-.1286.4267.0897.1325-.0995.0987-.1189.3725-.1025.2794-.1198.221-.0483.3023.123.5439.1209.5008.1732.1019.2434.0332.2102-.0901.5723-.1599.3326-.1378.2015-.4877.581-.3492.2962-.4233.2427z"/><path d="m74.567 61.5176-.1509-.233-.1659-.3555-.1104-.1581-.1824-.1375-.3483-.1067-.0754-.0478-.197-.324-.2059-.2455-.1964-.0983-.1564-.0152-.1335.0194-.2679.1221-.0699-.0017-.3888-.1515-.2882-.0398-.2459.0061-.2216-.0808-.1356-.0847-.2412-.1993-.3728-.3762-.3899-.2723-.1526-.219-.0286-.2997-.048-.1028-.1189-.0987-.3276-.187.0032-.0947-.1113-.4763.0385-.2674.0904-.1194.1957.0142.3022-.1109.2106-.0415.6819.0826.4618.1701.1442.0253.209-.0016.5784-.0802.1307-.0554.208-.1782.6961-.4028.0906-.0678.3136-.3425.0569-.0315.1132-.0141.0902.0371.0544.0507.2206.2905.2536.2558.3248.4557.2614.2497.1865.1527.1613.0996.5301.2266.0567.1508.0066.1261-.1051.5723-.0191.2336.0231.1979.0542.1514.1723.2218.2087.1441.131.037.2858-.0045.0822.0174.1545.0742.1319.1062.1966.2615.2647.2215.1162.1444.1061.2586.0047.2259-.0271.0916-.1551.2538-.1199.111-.1485.0752-.0967.015-.137-.0191-.4489-.1776-.8285-.0256-.3959.0911z"/><path d="m75.3605 71.5114-.1026-.1085-.08-.0398-.3589-.0957-.069-.0441-.0662-.0897.0331-.3993-.0654-.2545.048-.3434-.0083-.0821-.0644-.093-.2398-.1792-.1789-.1955-.0505-.4218-.0371-.1438-.0458-.0843-.2594-.2271-.2053-.2279-.1407-.0834-.1612-.018-.2558.1012-.0585-.0101-.0672-.0882-.0502-.2586-.107-.1454-.481-.3228-.2756-.069-.2853-.3234-.2143-.0637-.2615.0293-.1955.1231-.122.2299-.0719.0873-.0752.0188-.1089-.0307-.493-.3018-.1903-.2837-.7254-.3973-.3-.1904-.1027-.1044-.2695-.3658-.1156-.071-.0982-.0009-.1506.0825-.2464.3191-.1437.1187-.4593.0932-.1858.0579-.5073.0053-.8485.2655-.8523-.1553-.7029-.5516-.403-.5396.2709-1.0044.6329-.3083 1.5287.5521.6831-.6183.1675-.5985-.3423-.8714-.0941-.8182.358-.7761.848-.5918.0651-.3915.18-.0292.0481-.206.1199-.2226.5018-.3562.3422-.444.1247-.4279.0285-.696.3276.187.1189.0988.048.1027.0286.2998.1525.2189.39.2724.3728.3762.2411.1993.1357.0847.2216.0807.2459-.006.2882.0398.3888.1515.0699.0017.2679-.1221.1335-.0195.1564.0152.1964.0984.2059.2455.197.324.0754.0478.3483.1067.1823.1375.1104.1581.166.3555.1509.233.3159.1738.202.0737.7343.0699.0752.0778.0856.294.0722.1017.358.1789.2664.1666.2875.1338.0728.0785.0959.2464.078.1287.1145.0768.2845.072.1643.1056.6623.7707.1377.2297.0154.0626-.0126.1407-.1379.3689-.0159.1131.029.3064.0914.2395.0691.0549.0859.011.4578-.1091.1579.0611.2726.2561.1667.0941.0395.0765.0314.1576-.0053.1428-.0538.0784-.0712.049-.2319-.0331-.2848-.1794-.0792-.0264-.0835.0183-.0408.0558-.0231.1069.2116.6629.2846.3359.022.0771-.0165.0806-.0878.1446-.1145.1055-.4176.2846-.312.0537-.0681.0659-.0309.113-.019.2744-.0704.1739-.2787.3863-.0378.0876-.0328.1312-.0154.5619-.0359.0844-.0442.084-.1194.1027-.3783.1871-.1233.0983-.3896.5261-.1542.531-.1008.1671-.1187.1461-.1265.0965-.2067.0458-.3536-.2385z"/><path d="m77.5491 77.7957-.0656.0393-.7223.6602-.4602-1.7635-.071-.1632-.0879-.1302-.2886-.3104-.1126-.08-.323-.0835-.2248-.1234-.2176-.2028-.4635-.3234-.3021-.3203-.0641-.0414-.1285-.0376-.5927-.0697-.1554-.0468-.2634-.1607-.1768-.2029-.175-.1354-.3604-.0857-.4198.0322-.1219-.0231-.5057-.1869-.2194-.1738-.1434-.0786-.688-.1054-.2825-.1352-.1593-.1327-.0598-.086-.5081-1.0637.5507-.285.7604-1.1273-.2006-.8196-1.2895-.7359-.9202-1.175-.4026-.5886-.2854-.9179-.2007.0021.1858-.058.4593-.0931.1436-.1188.2465-.319.1506-.0826.0982.0009.1156.0711.2694.3658.1028.1044.3.1903.7254.3974.1903.2837.493.3018.1089.0307.0752-.0188.0718-.0873.1221-.2299.1955-.1232.2615-.0292.2143.0636.2853.3235.2756.069.481.3228.107.1454.0502.2586.0671.0881.0585.0102.2559-.1012.1612.018.1407.0834.2053.2279.2594.227.0457.0844.0372.1437.0504.4218.179.1956.2398.1792.0643.093.0084.082-.0481.3435.0655.2545-.0331.3993.0662.0897.069.0441.3589.0956.08.0398.1025.1086-.361.7034-.0541.1791.0317.1234.1762.1855.0353.1619-.0191.1928-.067.0901-.1799.07-.1339.1093-.0278.0891.0236.1746.3053.5453.1576.1618.208.0857.4937.0555.2378.06.4385.1845.2671.1692.0869.091.2436.4625-.1925.4747.0113.3262z"/><path d="m68.2135 83.4926-.181-.0359-.2395-.1426-.1023-.1127-.3806-.5523-.083-.1573.008-.6048.0352-.1835.1016-.1538.2823-.2361.0673-.165-.0068-.1219-.2258-.5939-.2866-.3843-.2161-.2278-.0622-.1152-.0623-.4459-.1075-.4568-.1682-.4147.002-.1447.2256-.4019.0697-.6485.2232-1.0964.0085-.1968-.0828-.4512-.0434-.055-.0432-.0143-.1047.0512-.3976.5772-.1103.0758-.1141.0156-.1511-.0207-.1454-.0753-.2631-.2206-.3164-.2213-.1074-.1114-.0918-.1345-.0428-.1191-.0111-.1481.025-.14.0773-.0669.3026.0223.1807-.0716.0889-.0796.0481-.0945-.0126-.2197-.1949-.3722-.1522-.1973-.063-.0321-.2474-.0248-.1754-.0605-.15-.108-.0653-.0914-.0184-.0535.007-.1311.1729-.4259.0021-.1597-.1031-.2377-.4637-.6797 1.8836-.4938 1.4609.1976 1.4189.772.0739-.0389.5081 1.0637.0598.086.1594.1328.2824.1351.688.1054.1435.0786.2193.1738.5058.1869.1218.0231.4199-.0322.3603.0857.175.1354.1768.2029.2635.1607.1553.0468.5928.0697.1284.0377.0641.0413.3021.3203.4635.3234.2176.2029.2249.1233.323.0835.1125.0801.2886.3103.0879.1302.071.1632.4603 1.7635-1.6955 1.5466-1.7462 1.6718-.8916 1.4142-.7942 1.331-1.8172-1.0856-.5269-.0983z"/><path d="m59.7307 72.6388.4961-.2757 1.3742-.4254.6925-.1366 1.6608.1263.3941-.1029.4637.6797.1031.2377-.0021.1597-.1729.4259-.007.1311.0184.0535.0653.0914.15.108.1754.0605.2474.0249.063.032.1522.1973.195.3722.0126.2197-.0482.0945-.0888.0796-.1808.0716-.3025-.0223-.0773.0669-.0251.14.0111.1481.0428.1191.0918.1345.1074.1114.3164.2213.2632.2206.1453.0753.1511.0207.1142-.0156.1102-.0758.3977-.5772.1046-.0512.0433.0143.0433.055.0828.4512-.0085.1968-.2231 1.0964-.0698.6485-.2256.4019-.002.1447.1683.4147.1074.4568.0623.4459.0622.1152.2161.2278.2867.3843.2257.5939.0069.1219-.0674.165-.2822.2361-.1017.1538-.0351.1835-.008.6048.0829.1573.3806.5523.1023.1127.2396.1426.181.0359-.4037.0823-1.3105.1403-1.1284-.1194-1.1391.3787-1.288.3615-.5484.0095-.7387-.2591-.5458-.2551-.6597-.2435-.3335-.3106-.7614-.0341-1.5402-1.0265-1.0797-.75-1.3291-.3811-1.3558-.5617-.5819-.5828-.233-.6259-.0198-.683.2961-.6874 1.1643-.7717 1.0728-.4385 1.1638-.7335.4282-.5038.6412-1.3893.9479-1.077z"/><path d="m44.4018 66.1319 1.2749-.6028.5781-.31.5577 1.8176.0558.7767-.3563.6247-.498.2939-.9136-.2721-.1967-.3432-.1455-.3092-.0968-.1074-.1575-.121-.0471-.0894-.0025-.1667.0734-.1829.0225-.1243-.0156-.17-.1189-.5299z"/><path d="m41.0989 69.4627.2111-.4102.1315-.4842-.01-.1945-.0657-.0981-.3416-.356-.4788-.3043.291-.1324.3615-.1281.9992-.3222 2.2045-.9008.0139.184.1189.53.0156.1699-.0224.1244-.0734.1829.0024.1666.0471.0894.1576.121.0968.1074.1454.3093.1967.3431z"/><path d="m38.8245 70.5032-.2278-.1852-.048-.0878-.1-.3732-.0372-.073-.7126-.8469-.1123-.1958-.0371-.1737.389-.0865.8279-.2409.6679-.213 1.1112-.412.4788.3043.3416.356.0657.098.0099.1946-.1314.4842-.2111.4102-.3457.0858-1.6094.6543z"/><path d="m35.3018 73.3976.0544-.4771.2455-.7745.0211-.1294-.0146-.09-.0585-.1217-.3936-.5856-.2794-.4896-.4668-1.072-.1398-.1965 1.2911-.3296 1.5332-.4666.4554-.0976.037.1737.1123.1958.7126.847.0372.073.1.3731.048.0878.2278.1852-.3918.3702-.4688.9717-.4962.8744-.63.3851z"/><path d="m33.199 73.6721.983-4.2001.0881-.0114.1398.1965.4668 1.072.2794.4897.3936.5855.0585.1218.0146.0899-.0211.1295-.2455.7745-.0544.4771-.3133.0594z"/></g><path d="m114.324 38.7784-.132.1086-.04.2149.108.5368-.052.1609-.085.0582-.198.0014-.334-.1433-.469-.466-.172.0271-.165.1341-.193.657-.679.9899-.126.5535-1.027 2.3277.097.9482-.038.285-.101.1821-.33.2774-.212.1221-1.008.5872-.923.6606-.729.2226-1.386.8284-1.446.506.037-.1243-.118-.2011-.749-.0999-.307-.1325-.207.0376-.248.1849-.372.3798-.681-.2799-.633.1735-.621.0577-.325-.0762-.272.0145-.7152-.3485-.455.0227-.9791-.1104-.2992.1019-.2151.4916-.3854-.0573-.1033.2086-.1131.0399-.2836-.0737-.5763.0728-.2312.315.0284.1516-.3218.4643-.023.1885.141.2316-.0633.2359-.3085.2296-.1977.2978-.0561.7551-.0673.0534-.2757-.1656-.2266.2811-.1253-.0766-.0996-.1991-.0781-.0022-.0948.2049.012.4104-.1215.0693-.3144-.1022-.2688.1238.0737.1734.1814.0983-.0562.5061.1593.2035.002.1192-.1305.1479-.6986.4184-.1198.1518-.042.1732.1644.243-.0078.1435-.1612.1194-.138-.0732-.1442.0304-.1807.4729-.3852-.0872-.346.7851-.1189.0944-.2429-.0587-.058.0373.0056.5998-.2132-.151-.5369-.5568-.5973-.8533-.2879-.3079-.615-.3915-.4849-.1191-.3183-.2588-.0896-.2685.1037-.1611-.0511-.3685.1122-.5661.4111-.6338.3181-.7518-.0101-1.023-.2558-.5939-.2015-.1936-.5296-.3165-1.5006-.5338-.3226-.1884-.187-.1852-.3116-.4675-.2462-.5584-.1977-.7986-.2638-.4312-.2929-.1133-.1892-.0106-.2558.0863-.5879.1969-.2118.1438-.5173.1305-.7766.0816-.8939-.0462-1.3586-.2222-.3028.0376-.5362.3341-.3853.3848-.6128.7641-.6279.5301-.2914.3746-.3013.3882-.3035.0759-.9077-.0928-.3198.1265-.6141.3836-.5388.8626-.4094 1.0102-.2321.1901-.3315.0317-.7001.3317-1.1571.8447-.2669.3545-.2055.3856.0512.7848-.0316.4002-.3262 1.0519-.2077.4379-.2855.29-.4715.2964-.1811.2431-.0376.2658.1112.4762-.0316.7907-.1247.4279-.3413.4424-.5033.3552-.12.2226-.0481.2061-.1799.0291-.0636.3925-.8489.5934-.358.7761.0941.8182.3423.8713-.1675.5986-.6847.6174-1.5271-.5512-.0471.0221-.5874.2853-.2709 1.0044.403.5395.7019.5533.8533.1536.8484-.2654.7081-.0075.2838.917.4042.5896.9186 1.174 1.2911.7369.2006.8195-.762 1.1265-.5507.285-.073.0372-1.4198-.7704-1.4616-.2001-2.2778.5967-1.6608-.1263-.6925.1366-1.3742.4253-.4961.2758-.7995.3924-.947 1.0754-.6411 1.3893-.4282.5038-1.1638.7335-1.0728.4384-1.1644.7718-.296.6874.0214.684.2314.6249.5828.5811 1.3542.5608 1.3307.3821 1.0781.7491 1.5402 1.0265.7614.034.3335.3106.6597.2436.5433.2557.7403.2601.5483-.0096 1.288-.3614 1.1391-.3787 1.1284.1193 1.3089-.1412 1.4815-.299.5269.0982 1.8181 1.084-.3275.5598-.9663 1.6478-.4745.5951-1.2071 1.039-2.1381 1.2802-.6956.4653-.6007.3527-.5169.5684-.0807.8718.2759 2.3801-.0526.6004-.25.7526-.2625.5179-.6643.7194-.5132.4911-2.0054 1.0244-.4917.5915-.2385.5618-.1355.7585-.3853.664-.7357.163-1.4377.082-1.6859 1.207-.3444.577-.1682.611-.516.567-.6416-.115-.7026.262-.6311.528-.7579 1.309-.9195.686-1.398.849-.5596.628-.6322.143-1.7299 1.108-.3716.492-2.3066 2.545-.5222.463-.7008.329-.361.369-.0808 2.358-.1415.584-.3088.33-1.0103.327-.4947.448-.273.692-1.2068.867-1.3506 4.347-3.9251 1.84-1.9027 1.962-1.3513 2.541-1.7615 1.163-.4695.527-.1937.521-.4511.596-1.6104 1.696-.6188 1.072-.315.713-.3497.624-.6201.234-.7066.08-.704.245-.6425.426-.7073.604-.0444-.049-.1206-.059-.0283-.111-.0611-.035-.0737.075-.0361-.008-.0672.079-.0637.022-.0331.038-.0692-.04-.0412.035-.0841-.015-.0659.044-.0987.119-.1352.074-.0611-.035-.0149.026-.141.047-.1351.004-.0736.075-.1692.044-.0762.132-.0942.003-.1816.084-.0798.012-.0455.079-.2057.07-.1359-.01-.2318-1.215.0333-.901.1747-.607.4222-.988.7615-.717.6312-.792.2191-.67.0026-1.153.9029-1.519 1.7611-9.602.3366-.449.5341-3.003 1.5132-8.136.6615-2.45-1.2047-2.385.4969-1.024 1.5066-1.286-.3889-2.107 1.0904-1.7025 1.1258-3.8044.5201-6.5424 1.0942-5.5522 2.097-8.9169 1.7896-.2156 1.8503-.3543.63-.3851.4962-.8744.4688-.9717.7112-.6708 1.612-.655 4.3396-1.0907.9184.2749.4989-.2955.3564-.6247-.0558-.7767-.5575-1.8217 1.3001-.7021.1577-.0055.0995-.0498.0022-.0223-.0411-.0366.0545-.0759-.0169-.0226.0157-.0274.1556-.0539-.0204.0354-.1157.0405.0671.0623.0003.0367.0281.0033.8292-.4589.1644-.1583.1416-.0148.2687-.1088.1337-.0902.0179-.0497.1476-.0585.1145-.0906.0544-.005-.0044.0447.0306.0176.954-.5671.1531-.0683.4656-.3084.2121-.0813.1653-.1449.6165-.3543.6205-.4356.2741-.1551.3307-.2532.0931-.0535.0281.0033.0078-.032.1609-.1002.2026-.1726.2039-.1227.2719-.2034-.0332-.1394.0416-.1798.0814-.1225.1869-.1453.0225.013-.0362.0628h-.0408l-.1089.0809-.0883.1529.0004.2298.0611.0353.0421-.0358-.0512-.0897.0158-.0273.0408-.0001.044-.0947.0383-.0144.0498-.0677.0158-.0274-.0203-.0354.0204-.0354.0692.04.0102.053.177.1022.0421-.0357.0974-.0275.0365-.0261-.0284-.04.018-.0497.1437-.2303.0327-.0047-.0124.0401.0226.013.0102-.0177.0816-.0001.563-.4474.3997-.2799.6222-.4905.1086-.1175.1894-.131.0204-.0354.051-.0178.1529-.1756.0987-.0632.0703-.1032.0362.008.0285-.0307.0281.0033.0362-.0627.0319-.0181.0225.013.0261-.045.016.0092.1235-.0725.0488.0046.0396-.05.4297-.209.481-.3724.4858-.3954 1.016-.9756.1996-.2044.1447-.1096.1424-.1945.1085-.0468-.0228-.0497.1572-.1495.0885-.0455.0316-.0547.0723-.0548.0647-.0228.1377-.1865.1352-.0185.0474-.0821-.0148-.045.1326-.0328.0532.0306.1007-.0147.1634-.086.1541-.1406.0702-.0324.0555-.0774-.0059-.027.0569.0092-.0046-.0627.0383-.0143-.0105-.019.0523-.0535.2729-.205.0555-.0775.0424.0009.0525-.0426.0245-.1317.0521-.0902.0871-.0097.025.0273.1303-.1179.1473-.0952.0032-.0947.0396-.0501.0225.013-.0099.0543.0306.0177.2367-.2131.2101-.2413.1213-.0501.0587-.0498.0134-.0416.0327-.0047.2501-.2548.078-.1352.2274-.1819.0415-.1091.1113.0042.0338-.0771-.0334-.0686.136-.1983.0463-.0097.0365.0446.0319-.018.3169-.2999.3123-.3625.1086-.0618.1191-.0985.026-.0451-.0067-.0404.034-.0404.2005-.1503.06-.0147.0338-.0771.1426-.0871.0712-.1048.1587-.0779.0895-.1178.0907-.0679.0359-.0994.0974-.0274.0836-.1449.1904-.2033.0885-.0455.198-.1646.0551-.1141.0566-.0274.112-.1048.0078-.032.2163-.1777.0854-.1331-.0225-.013.0158-.0273.1067-.0586.1369-.1999.1791-.1133.0681-.0808.1584-.1145.0552-.1141.0203.0353.0281.0034.0731-.1638.1254-.1465.0463-.0097.0282-.0674.4141-.4497.0214-.037-.0228-.0496.0179-.0497.1314.0029.0238-.0228.2315-.2783.078-.0644.0632-.1094.0987-.0632.476-.5234.0631-.1094.1539-.1773-.0467-.0269.0102-.0177.1327-.0329.0541-.0417.0895-.1178.0471-.1187.1517-.1549-.0318-.0677.086-.0598h.0408l.156-.1289.0281.0034.1005-.1222-.0003-.0366.0724-.0548.0705.0042.0644-.0594.0102-.0177-.0773-.0446.0839-.0374.026-.0451.0804-.0501.077.008.0077-.032.0217-.0004.441-.4963.1685-.2547.2321-.205.1879-.2177.0336-.1994-.3395-.196.026-.0451.3065.1641.0327-.0047.0579-.0631.0148.045-.0291.069.0917.0529.0183-.013-.0531-.0307-.0068-.0403.0214-.0371.0362.008.0523-.0534.0214-.037-.025-.0273.0158-.0274.0361.008-.0077.032.0225.013.0544-.0051-.0003-.0366.0657-.0951.1689-.0956.0099-.0544-.0569-.0092.0654-.1318h.0408l.0418-.0725.0621-.037.0053-.0463.0919-.0328.0372-.0644-.0148-.045.0792-.1001.0872-.0098.0815-.1225.1348-.0551-.0717-.0543.018-.0497.0386.0223.1043-.0728.2182-.2367.0566-.0274.0758-.1128.0805-.0502.0607-.1237-.0411-.0366-.0067-.0403.052-.0902.1074-.0968.0983-.029.0491.0412.0987-.0631.0133-.0417-.0475-.0403.0316-.0547-.0228-.0497.1911-.1192.0035-.0581.0499-.0678.0782-.0277.1922-.1916.0203.0353.0375-.0277.0211-.0737.1299-.0837.0257-.0818-.0231-.0863.0315-.0547.0864-.0231.0959-.1141-.0204-.0354.026-.045.1257-.1099.0838-.0374-.0011-.05.0597-.0514.0811-.1591.0677-.0467.0474-.0821-.0123-.0307.0836-.0741.1987-.2736.0442.0126.0916-.0694.1684-.2546.1629-.1743.106-.061-.0309-.0543.1548-.1789.0765-.1511.1064-.0244.0294-.0324.1762-.2866.2204-.274.1499-.2782.0678-.0467.0158-.0274-.0148-.045.026-.045.0263-.0085.0291-.069.0681-.01.0235-.0594-.0228-.0497.0418-.0724.1256-.1098.0418-.0724.1429-.0506.026-.045.0984-.0291.1022.0719.1349-.0552.1234-.0875.1096-.1191.0248-.0951.0903-.0337.2257-.3203.1457-.1111.4236-.6073.0993-.1014.1635-.2833.0895-.1178.0724-.0548.3071-.4428.054-.1641.0386.0223.0183-.013.1489-.2059.0551-.114.0032-.0948.0225.0131.0319-.0181.0068.0404.0281.0033.0158-.0274-.017-.0226.0643-.0594-.0147-.045.0248-.0951.1682-.2913.0646-.0228.001-.0723.0783-.0278.059.0577.2637-.0666.0955.0315.0942.0673.1802.0075.0622-.0371.0328-.0047.0169.0227.0439-.024.0692.0399.0738.1027-.0042.1671.0692.0399.0172.0593.1068.1346.0797.0589-.0158.0274.0127.0674.202.1295.2327.0614-.0158.0273-.1147-.0168-.0059-.027-.0871.0097-.0306-.0176-.1829-.1292-.0945-.1039-.0808-.1797-.0714-.0176.0331.0319-.0053.0463.025.0274-.0294.0323.1152.1759-.0035.0581.025.0273.0151.0817-.0211.0736h.0408l.0529-.0917.0306.0176-.0329.0904.0386.0223.0477-.0454-.0172-.0593.0213-.037.0183-.0131.0411.0366.0082.1271-.0778.1868.0429.0483-.0113.0901.0998.0576.0544-.005.0909.0395.0146-.0773.0362.008.0765.1536-.062.1594.1805.0442.0238-.0227-.0011-.0501-.0717-.0542.0369-.101-.0668-.0257-.0308-.0543.1452.0345.341-.022.0587.0211.0677-.0468.0523.0173.0214-.037.0689.0033.026-.045.06-.0148.1042-.0728.1655-.0375.3-.1443.6512-.4888.0569.0093.0211-.0737.2011-.1886h.0408l.0134-.0417.1615-.1385.0544-.005.0052-.0463.2306-.221.0133-.0416.2745-.3157.2404-.3977.0138-.2023-.0067-.1111-.0351-.0804-.0862-.0626-.0463.0097-.0418.0724-.0445-.0493-.0748-.0303.0418-.0724.3135-.2567.1536-.2289.3661-.3851.1613-.2609.0541-.0417.0552-.1141.0216-.0004.053-.0917.0938-.0918.0179-.0497.1696-.1338.0474-.0821.0568.0092.1422-.2462.0464-.0097.1015-.1238.2239-.1389.0663-.1334.0035-.058.0327-.0047.0688-.1191.0804-.0501.0449-.0964.1053-.0744.0077-.032.0488.0046.0369-.1011.1163-.0787.1015-.1238.0804-.0501.0951-.1275.1562-.0922-.0203-.0354.0325-.0563.1144-.0198-.0059-.027.0653-.061.0099-.0543.1005-.0514.0369-.1011.0225.013.0505-.106.0544-.005.1298-.2062.0677-.0467.1908-.2933.0621-.037.0586-.1014-.0068-.0404.1803-.3122 1.2477.6968.9166.4305.8832.7373.1207.0139.2587-.0802.3807.0803 1.0462.559 1.1549.4673.4761.4464-.0462 1.1578.0879.4498.2753.4894.134.1396.887.0916.7952.3799.261.009.737-.1839.245-.1077.325-.0354.128.0568.421.3999.573.0943.109-.0417.278-.3954.143-.1022.657.0811.329-.25.472-.6885.637-.701.355-.2068.35-.2896.208-.4137.161-.5082.161-.25.548-.4025.239-.0423.457-.1932.604-.4325.107-.0327.102.2718.116 1.3156.089.0961.159-.0387.255-.2003.229-.0954 1.023.0864 1.143-.0179.444-.1108.792-.4203.353-.0754.211.0318.662.4593.463.171.691.0898.759-.1218.291-.1283.235-.2114.617-.7664.455-.2432.599-.0623 2.024.0465.079.1938-.099.2604-.342.3625-.568.3113-.914.3115-.591.4782-.431.5494-.641 1.4176-.172.2012-.633.3615.064.3652.208.5861.034.3542.001.2132-.202.7779-.188.4083-.207.2307-.259.2084-.403.1256-.191.1259-.153.388.182.2165.356.2595.154.2199.096 1.1837-.565.8261z" stroke="#3db96d"/></g></svg>