<svg fill="none" height="97" viewBox="0 0 107 97" width="107" xmlns="http://www.w3.org/2000/svg"><g fill="#000" stroke="#3db96d" stroke-width=".5"><path d="m98.0791 13.9707-.2648.0909-.5757.5007-1.912.5023-4.47.8341-.1451.0829-.1546.1563-1.7223 3.0442-.0431 1.8021-.3923 3.3313-.1403.7272 1.9375 4.2467.209 3.958-.9648 1.523-2.0078-.2695-2.1512.0111-1.6537-.177-1.2806-.3907-.9058-.1866-1.086-.6108-.2918-.4082-.429-.2886-12.4482-12.2713-.6172-.7893-.3444-.6969-.6124-.9696-.2424-.6315-.0414-.3317-.1276-.2217-.4417-.3843-.3014-.1738-1.212-.4449-.7256-.3461-.8755.1994-.3413-.0543-.2886-.1786-.9217-1.204-.1324-.5374-.2839-.5757-.0574-.2711.2121-.0877.2281.0367 1.239-.1946.8006-.2296 1.0732-.1228.9122-.3508 1.3316-.1117.5438-.1148.7654-.4258 1.1466-.4178.8277-.5007.5693-.23602.5517-.4816.7192-.21847.7591-.13555.4258-.17702.4784-.30299.3445-.32851.287-.1212.7479-.50711.9457-.44492.5215-.4816.2998-.18818 1.7031-.35243.5693-.28385.311-.25356 1.1434-.47841.5199-.37795.7048-.16265.4593-.28705.6411.01595.1818.20412.2583.05422.5581-.34765.555-.05581.4545.05262.7957.24399 1.7957.3333.8691.05581.5454.25356.118.24239.1021.06698.2902-.02552.539-.28226 3.6184-.00638.9026-.11163 1.5612-.53422 1.1195-.02073.4752-.07814 3.4095-.82765.649-.35243.646-.22485.767-.47204.257-.44332.264-.27748.863-.64426.354-.650639.134-.078141.113.035084.013.191364-.223.467252.032.12757.418-.05741.444.1818.305-.19296.195.38751.216.08931.101.22963.351.17064.121.17541-.035.3333-.238.21687-.076.2727.028.21369.404.94406-.008.62672.059.11482.238.14033.057.29183-2.134 2.14966-1.137 1.31882-.663.64266-3.0923 3.66622-.5438.472z"/><path d="m87.7054 44.3548.1069 2.1911v1.4847l.1275 1.4352-1.5468 2.3044-1.6761 4.0346-.2487.2392-.0766.3747-6.4346 3.4733-6.4952 3.6646-3.0108-4.4747-8.9319-12.7799.1658-1.5246-1.3108-2.7524-1.0509-.9058-.8086-.5406 6.8445-10.0052-.2711-.0606-.4369-.3046-.2058-.0223 2.9247-13.0941.2424.6315.6124.9696.3444.6969.6172.7893 12.4482 12.2713.429.2886.2918.4083 1.086.6107.9058.1866 1.2806.3907 1.6537.177 2.1512-.0111 2.0078.2695-.7942 1.255-.1212 1.9471-.5119 1.9105-.2695 1.5596-.1132 1.381z"/><path d="m24.6191 34.7706-.3444.1643-.1308.4545-.3014.6363-.1627.2041-.2041.1435-.5119.1547-.1228.1451-.1578.5135-.2536.3891-.0048.3158.1659.1116.2232-.016.3461-.4752.1929.0431.1085.3093.0095.8596-.0303.043-.2758-.1068-.1181.0478-.1833.1707-.1707.2998-.1802.0749-.9058.0367-.2535-.1228-.1132-.8532.1833-.3859.0303-.2456-.0478-.2822-.1786-.252-.075.0064-.236.4051-.3668.3476-.1929.4641-.1132.059h-.3907l-.1786.0797-.1356-.2137-.2791-.1754-.1355-.2934-.5996-.4816-1.3651.2838-.3987.2026-.6729.0478-.5024-.0478-1.0413-.2935-.6251-.0048-.1531-.118-.185-.4114-.48-.2456-.4242.2727-.4114.0797-.1754-.177-.1707-.6618-.2663-.5039.1659-.2727-.0957-.5454.0303-.3269-.118-.3046-.0048-.2296.3588-1.8818-.0176-.5294-.1259-.0606-.7974-.0096-.118-.0701-.1738-.4992-.2328-.0526-.3365.1818-.29664.0112-.30299-.1611-.10685-.1946.46246-.2934.07812-.2854-.03984-.1292-.26632-.0909-.61236.0319-1.06367.1834-.17382-.1021-.04784-.1244.07016-.2759-.08771-.4178.10685.2616.22326.0909.22007-.3891.09568-.9441-.12917-.3349.10684-.3253.39389-.6379.25197-.1722.24718-.0622.2998.0351.24399.1355.37154-.051.0558-.0638-.1802-.3779.0511-.2233.3046-.2392.4241.2264.3812-.0462.161-.1212.0575-.1706-.0224-.3142.2249-.3875-.1005-.4306.1435-.3014-.1865-.303-.0766-.3763.1706-.4625-.2408-.5199.1914-.3715.185-.0574.0399-.1579-.0877-.4593.0924-.0606.5024.2919.3492.0574.2137.1275.1675-.0717.2152-.563.2217.0878.2089-.1579h.3126l.2328.1945.4178-.0781.3987.2823.1435.0191.1419-.0223.2089-.2233.539-.0016.4067-.2918.0845-.2105-.2089-.3206.1196-.4002-.0877-.0909-.3732-.1069-.0334-.2296.4576-.0909.4418.0749.1658-.0972.2025-.2536.2137-.0223.1611.1898.0845.4975.4242.3126.3445.5342.1977.1674.0654.2711-.1228.2536-1.0142 1.0573-.6124.4481-.1276.2424.075.1834.2838.2535.0271.3014.0862.0909.4417.2966.9632.3668.5151.3174.1148.3077.0558.9904.9186 1.3379.0574.2743.2631.2743.0702.4194.2535.2041.2616.4354.6171.1547.3062.3986.429.2201.1658.193.0351.2089-.1005.279-.6347.5088.2632.8914.2663.3476.0223.5359.236.0542.1356.1339.1881.4067.3971.1658.2982.3317z"/><path d="m14.456 79.5181-.1005-.6347-.547-.6187-.2057-.5215-.1355-.1196-.2408.1036-.2839.3174-.9664.6251-.3062.2966-.1004.421-.1611.0989-.5645-.1308-.319-.2806-.1578-.2711-.48962-.1149-.10046-.3699-.31097-.2089-.29662-.3907-.20093.1355-.02551.1818.0877.4274-.21847.5103-.09249.0781-.4816.0782-.55496.2551-.87071-.0733-.27109.1148-.42898.3492-.26313.0782-.4194-.0463-.16107-.3125-.40186-.1563.03987-.7336-.0606-.1499-.65224-.0781-.53422-.5358.16585-.26-.02233-.0622-.35083-.2041-.05263-.5215.04944-.3396.13395-.3493.47841-.6299.05582-.2392-.02233-.1355-.08133-.0622.65224-.598.19933-.3062.03987-.2281-.1802-.4975.25356-.1419.89462-.193.48001-.2759.18339-.2599-.03668-.3891-.09249-.1196-1.12905-.6618-.59961-.0877-.07495-.1786.0303-.1244.49595-.4832.02233-.5486.30459-.378.28704-.5007.05741-.2217.08452-.0717.30778-.0399.53422-.8547.70167-.1866.6331-.4418.14831-.0239.1786.319.33808.0909.48957-.0447.303-.3492.44651.11.17542.1675.3269.0079.6905.2759.2456.0096.1069-.0702.2089-.3333-.1133-.2456-.346-.2966-.6299-.2121-.48-.4146-.0255-.1834.1132-.2711.5183-.783.3093-.3365.2919-.1164.0478-.2248.5422-.4673.0415-.2392.4736-.2201.5725.185.3476-.2009.2345-.2265.0542-.5278.3923-.5215.185-.1435.3157-.1148.1053-.429.2041-.1882.0925-.2886.4114-.2264.1547-.2297-.0782-.0845.2791-.1643.5422-.0207.6698.3317.8611.0271.9234-.4624.3891-.0846 1.5357 1.8834.8707 1.5086.4545.5884 2.1082 1.255.3061.0846.673-.0479.1356.126.5549 1.1227.4545.708.5422.3668 1.0716 1.153 1.1817.8898.783.7894.2807.5757.3333.9361.6729.9616.2983.3221 1.1099.8627.5948.3604 1.373.4019 1.6442 1.1322 1.5006 1.4225 1.1848.8436 1.1195.9473 1.4209 1.0349.6969.6698-12.9171 8.1457-.5613-.6713-.5677-.3365-.3716-.4816-.4545-.362-1.3826-1.3459-.1531-.2743-.1228-1.078-.3317-.4402-.3939-.1658-.4018.2806-.2313-.0366-.3636-.244-.4242-.177-.0749-.2233-.3843-.5135-.0256-.3939-.4194-.3109-.4895-.2026-.9441-.0941-.2631-.1243-.2185-.2552-.1005-.5406-.6554-.6809-.1307-.4673-.201-.2232-.5023-.2712-.5167-.4784-.2934-.0303-1.0015.2919-2.4718.2918-.1483.067zm-2.6616-7.4186-1.5724-.0494-.2105.134.0144.6873.2663.2854.1547.3684.2248.118 1.1084-.0335z"/><path d="m24.6191 34.7707-.724-.3014-.2982-.3317-.3971-.1658-.1881-.4067-.1356-.1339-.236-.0543-.0223-.5358-.2663-.3476-.2632-.8915.6347-.5087.1005-.279-.0351-.209-.1658-.1929-.429-.2201-.3062-.3987-.6171-.1546-.2616-.4354-.2535-.2041-.0702-.4194-.2631-.2743-.0574-.2743-.9186-1.338-.0558-.9903-.1148-.3077-.5151-.3174-.9632-.3668-.4417-.2966-.0862-.0909-.0271-.3014-.2838-.2535-.075-.1834.1276-.2424.6124-.4481 1.0142-1.0573.1228-.2536-.0654-.2711-.1977-.1674-.3445-.5342-.4242-.3126-.0845-.4976-.1611-.1897-.2137.0223-.2025.2536-.1658.0972-.4418-.0749-.4576.0909.0031-.2328-.1546-.1531-.3142-.0319-.2823.1339-.2152-.0223.0669-.2105.2472-.2615-.118-.4035.0367-.3173-.3668-.0224-.1595-.1068-.1929-.5263-.0208-.2679-.1116-.126-.0112-.4417-.2025-.3524.0335-.118-.0654-.1005.0016-.0797.3206-.2153.2822-.496.2025-.8101-.0558-.4194-.1993-.5868.0622-.3812.708-1.0764-.0287-.4481-.1738-.3732.1387-.3747.5901-.657.1244-.2217-.0096-.1977-.1451-.29346.1132-.18339.1531.2121.8468.20735 1.0254.5023 1.5516.4082.6555-.0701.7.3763.4896.4896.5693.2504.0096.2248-.3684.6698-.0829.3492.3221.1451.6698.5773.1977-.0654.2887-.6331.3604-.0749.6331.1882.6394-.1914.6427-.0303 1.0764.1914.5964.0303 1.5724.3046.4657-.2201.5087-.5295 1.9009-1.0764.6203-.1339.5087-.2073 1.0142.0047.3652-.2073 1.4735-.5182 1.0796-.6363 1.0127-.20415.4672-.58686.8803-.44173.7304-.26472.3381-.24239.5693.02073.3524-.14831 1.4113.25515.8819.06379.8005.3014.6873.37475 1.1084.46725 1.062 1.11149.0303.6172.2631 1.1513-.0653.3158-.1531.1132-.9361.1308-.1053.1579.1228.6235.2137.2232.2791-.0542.7048-.5438.1978.0766.0733.1786-.0303 1.6059-.236 1.3379-.2759.9106-.3715.5629-.5773.6809-.9791.7033-1.5102.8324-1.5134.3014-1.6043.0814-.4832.0957-.1515.169-.6697.3237-.2664.26-.3141.5071-.1802.4752-.437.6618-.0574.5884.1053.7224.2408.3557.6825.7.2408.4194.6905.5598.0176.1945-.3636.9186-.3971.4082-.6475.9138-.3938.7256-.4242 1.3092-.2536 1.2168-.0526.901 1.2024 1.5309 2.148 2.164-1.0668-.0032-1.8499.1388-1.1769-.1005-2.4191.0048-1.7845-.236-.783-.3413-1.4177-.9791-.4895-.0208-2.1561.2887-.8181-.0319-.9089-.5725z"/><path d="m41.7081 38.0256-.2567-.4115-.7958-.6171-2.148-2.164-1.2024-1.5309.0526-.9011.2536-1.2167.4241-1.3093.3939-.7255.6475-.9138.3971-.4083.3636-.9185-.0176-.1946-.6905-.5597-.2408-.4194-.6825-.7001-.2408-.3556-.1053-.7224.0574-.5884.437-.6618.1802-.4753.3141-.5071.2664-.2599.6697-.3237.1515-.1691.4832-.0957 1.6043-.0813 1.5134-.3014 1.5102-.8324.9791-.7033.5773-.6809.3715-.563.2759-.9105.236-1.338.0303-1.6058-.0733-.1787-.1978-.0765-.7048.5438-.2791.0542-.2137-.2232-.1228-.6236.1053-.1579.9361-.1307.1531-.1132.0653-.3158-.2631-1.1514-.0303-.6171 1.4608 1.4017.8468.2185 2.2182.0335 1.6059-.1132 1.0269.1212 2.2342.6283 1.8499-.48 1.4846-.1117.0575.2711.2838.5757.1324.5374.9217 1.204.2886.1786.3413.0543.8755-.1994.7256.3461 1.212.4449.3014.1738.4417.3843.1276.2217.0414.3317-2.9246 13.0941.2057.0223.4369.3046.2711.0606-6.8444 10.0052-1.8419-.7224-1.6617-.3046-1.92-.6618-3.3808-.6825-2.5196-.2951-1.0589-.0526-1.3332.0112z"/><path d="m3.64242 36.7017-1.14181-.9457-.40346-.1228-.118.209-.13077-.1563-.12279-.0367-.05263-.0702.05263-.1754.01754.016-.03827.1706.09568-.1228.03987-.2041-.0622-.0431.10047-.1658-.14831-.0574-.02232-.1244-.07814.043-.00798-.1483-.04943.0303-.22326-.1387-.00319-.075h-.08771l.20093-.2408-.05581-.1658-.10525-.0383-.23283.1021-.06538-.1276.18817.0048.20572-.1499.02233.0638.10844.0175.03508-.0973.10047.0112.09249-.3269.08771-.0383.01754.0861.06857-.0111-.04784-.1771.07974-.0095.118-.2998-.07016-.0702-.03987-.2743-.15309-.1004.00957-.2791.20093-.2089.2711-.0638.02232-.1292.10366-.0749-.02073-.0909.15628-.0814.04465-.1339.19296-.0702.0606-.4385.17063-.0973-.10046-.8053-.14034-.1818v-.2105l-.14352-.1435-.00957-.3062-.2105-.1404.08452-.2519-.1802-.059.00478-.0654.12279.0223.08612-.0749.06219.0956.11322-.0271.05741.0861.2711-.0159.29821-.2998.13077-.0064.10844-.1499.11801-.5693.07495-.0494.03508-.177.07814-.118.28545-.1452.01276-.0701.27269.2647 1.03497-.4306.10844.0112.22804.3062-.12598.6697.059.1707.49276.0382 1.04772.2632.27748.1977.22007.4178.08771.4178-.07017.2759.04784.1244.17382.1021 1.06367-.1834.61237-.0319.26631.0909.03984.1292-.07811.2854-.46246.2934-.18499.0766-.11482.1547.01754.531-.0606.2264-.12757.1436-.34127.0861-.10844.2631.31894.5406.12279.8691-.0574 1.322-.31895 2.0907.17861.7415.19774.4003.01276.4656.38432 1.4464.04785.8947-.69848-.3748-.70327.3221-1.55164.0463-.53901.1355-.13874-.0319-.75908-.6028-.24558-.1227-.40027-.0272-.04784-.0988-.0909.0064-.05741-.2775.03987-.3317-.04944-.1547.05263-.1116-.06539-.0431.05263-.3684-.04784-.0255-.03509-.9074.0606-.059-.15628-.598.06379-.0973-.17861-.3093z"/><path d="m9.48071 30.823.10684.1946.303.161.29665-.0111.3364-.1818.2329.0526.1738.4991.118.0702.7974.0096.1259.0606.0176.5294-.3588 1.8817.0048.2297.118.3046-.0303.3269.0956.5454-.1658.2727.2663.5039.1706.6618.1755.177.4114-.0797.4242-.2727.48.2456.185.4114.1531.118.6251.0048 1.0413.2934.5024.0479.6729-.0479.3987-.2025 1.3651-.2839.5996.4816.1355.2935.2791.1754.1355.2137.1786-.0798h.3908l.1132-.059.1929-.464.3668-.3477.236-.405.075-.0064.1786.2519.0478.2823-.0303.2456-.1834.3859.1133.8532.2535.1228.9058-.0367.1802-.075.1706-.2998.1834-.1706.118-.0478.2759.1068.0303-.043-.0095-.8596-.1085-.3094-.1929-.043-.3461.4752-.2232.0159-.1659-.1116.0048-.3157.2535-.3891.1579-.5135.1228-.1452.5119-.1546.2041-.1436.1627-.2041.3014-.6363.1308-.4545.3444-.1642 1.1657.3731.909.5725.8181.0319 2.156-.2886.4896.0207 1.4177.9792.783.3412 1.7845.2361 2.4191-.0048 1.1769.1004 1.8499-.1387 1.0668.0032.7958.6171.2567.4115.0367 1.3347-.0749 1.2264-.2584.6921-.5071.7782-.1355.3365-.0702.4895.0877.7926-1.094.4146-1.263.5964-.2535.1802-.3812.4099-.035.2759-.319.5741-.008.4034-.1403.3461-.3062.3508-.1754.0845-.1531-.0685-.7957-1.0781-1.2375-1.0429-.1802-.9042-.3588-.5534-.6156-.1052-.4035-.3891-.2184-.0909-.5119.0797-1.5963.5055-.4816.0335-.9792.6475-.2009.3301-.0271.8404.0973.3779-.1627.1962-.2137-.0271-.2631-.3923-.1132-.0638-.8484.0048-.2711.2121-.1659.0478-.5246-.228-.1404.1228-.0303.2966-.2934-.0893-.3109.0366-.1053.3349-.1882.2073-.0957.3445-.2583.2233-.4369-.1643-.3062-.4784-.3237-.0526-.437.1754-.1451.429-.4673-.2759h-.2232l-.2759.346-.5199.0734-1.086.8388-.2009-.0367-.0654-.3668-.2583-.3125-.0877-.303-.3142-.4306-.193-.547-.2918-.1913-.2328-.0479-.2137.0048-.3636.2456-.4114.0271-.319.2855-.5852-.0319-.2105.102-.1754-.0749-.2839.244-.3062.0382-.3939.1643-.346.2488-.4848.0637-.3317-.1435-.1148.016-.437.2615-.1578.0207-.209-.0478-.0924-.3397-.2935-.0845.1308-.303-.0207-.1435-.1978-.1116-.1531.0111-.1881.1212-.1834.3827-.3493.26-.0654.2025.0256.2695-.1659.1435-.0096.3238-.1738.1275-.0351.1436-.0972.0797-.2839-.1914h-.2089l-.1499-.244-.1084-.0637-.1755.0797-.2663.3444-.1355.0112-.0925-.4035-.3668-.1116.2312-.2488-.1244-.2232-.1387-.2089-.47203-.3381-.28545-.7989-.92014.1228-.73995-.1149-.15309-.1132-.08771-.2488.01755-.2344.09089-.0893.44652.0415.25834-.1691.28705-.0478.07654-.0957.30778-.0191.41303-.3748.01754-.2982.15309-.4034-.14033-.9218-.08771-1.8435-.04784-.8946-.38432-1.4464-.01276-.4656-.19775-.4003-.1786-.7415.31894-2.0907.05741-1.322-.12279-.8691-.31894-.5406.10844-.2631.34126-.0862.12758-.1435.0606-.2264-.01755-.5311.11482-.1547z"/><path d="m68.0668 65.4874-7.9288 4.5449-10.5171 6.1731-7.5988 4.7155-.6968-.6698-1.4225-1.0365-1.1195-.9473-1.1849-.8436-1.5006-1.4224-1.6441-1.1307-1.373-.4018-.5965-.3604-1.1099-.8628-.2982-.3221-.673-.9616-.3332-.9361-.2791-.5757-.783-.7894-1.1801-.8914-1.0716-1.1514-.5438-.3668-.4545-.708-.555-1.1227-.1355-.126-.6746.0463-.3062-.0829-2.1082-1.2551-.4545-.5884-.8707-1.5086-1.5341-1.8849-.3891.0845-.9233.464-.8611-.0271-.6698-.3317-.5422.0208-.2791.1658-.4162-.1993-.1196-.2153-.1372-.6602.0734-.1834.228-.2568-.0334-.287-.5518-.1946-.4704-1.0828.0271-.1913.3683-.4848-.0988-.2185-.5677-.2328-.1356-.2871-.598-.3045-.2599-.4625-.0511-.2855-.4991.0303-.1834.1356-.4513-.1659-.2312.1595-.3062-.1339-.1308-.2105.075-.2361.7527-.338.2184-.1659.0559-.1451-.0862-.3381.2137-.6139.1228.0127.2408.2918.2663-.0255.1196-.6905-.1674-.0335-.3413.1866-.2934-.0478-.5837-.3748-.3109-.303.0095-.1658-.2886-.3875-.2249-.0415-.1514.1786-.0814.5661-.3492.3238-.27909.035-.41622-.0861-.28066.1212-.39708-.2344-.46566.1276-.64745-.1786-.37794.0861.05103-.4051.47522-.8834.4816-.7001.12279-.3971.2105-.1435.18339-.3812.33649-.1483.14352-.2918.53901-.472-.02233-.5837.10525-.287.53583-.2647.1244.2232-.2313.2488.3668.1116.0925.4035.1356-.0112.2663-.3444.1754-.0798.1084.0638.1499.244h.209l.2838.1914.0973-.0798.0351-.1435.1738-.1276.0096-.3237.1658-.1435-.0255-.2695.0654-.2026.3492-.2599.1834-.3827.1882-.1212.1531-.0112.1977.1117.0207.1435-.1307.303.2934.0845.0925.3397.2089.0478.1579-.0207.4369-.2616.1148-.0159.3317.1435.4848-.0638.3461-.2487.3939-.1643.3062-.0383.2838-.244.1754.075.2105-.1021.5853.0319.3189-.2854.4115-.0271.3636-.2456.2136-.0048.2329.0478.2918.1914.193.547.3141.4305.0877.303.2584.3126.0653.3668.201.0367 1.086-.8389.5198-.0733.2759-.3461h.2233l.4672.2759.1452-.4289.4369-.1755.3237.0527.3062.4784.437.1642.2583-.2232.0957-.3445.1882-.2073.1052-.3349.311-.0367.2934.0893.0303-.2966.1403-.1228.5247.2281.1658-.0479.2711-.2121.8484-.0047.1132.0637.2632.3923.2137.0271.1626-.1961-.0973-.3779.0272-.8405.2009-.3301.9791-.6474.4816-.0335 1.5963-.5055.5119-.0797.2185.0908.4035.3892.6155.1052.3588.5534.1802.9042 1.2375 1.0429.7958 1.078.1531.0686.1754-.0845.3062-.3509.1403-.346.008-.4035.3189-.5741.0351-.2758.3811-.4099.2536-.1802 1.263-.5964 1.094-.4146-.0878-.7926.0702-.4896.1356-.3365.5071-.7782.2583-.6921.075-1.2263-.0367-1.3348 1.0908-.1546 1.3331-.0112 1.0589.0526 2.5196.295 3.3808.6826 1.92.6618 1.6617.3046 1.8419.7224.8085.5406 1.0509.9058 1.3109 2.7524-.1659 1.5245 8.9319 12.78 3.0108 4.4747z"/><path d="m4.40777 50.4205-.09568-.944-.66499-1.5692-.17383-.5789-.23601-.0638-.06538-.1866.08292.1707.18339.0319-.0606-.0415-.04465-.016.04784-.0637-.07495-.016.07017-.0415-.07017-.0334.26632-.1914-.02233-.6411-.11322-.2759.07016.0527.03509-.4513.24558-.1962.07814-.1594-.08771-.6331-.11322-.2281v-.236l.10525-.2855-.07495-.5166.08452-.0431.04784-.1866.15309-.0255.17063-.555.10047-.0207.07495-.1164-.05741-.3189.12279-.1499.3014-.1595.03827-.0957-.07814-.6395-.2408-.5725.40027.0271.24559.1228.75908.6028.13873.0319.53901-.1339 1.55165-.0463.70326-.3237.69848.3764.08931 1.8434.14033.9202-.15309.4034-.01754.2982-.41303.3748-.30778.0175-.07654.0957-.28705.0479-.25834.1706-.44652-.0431-.09249.0909-.01754.2345.0877.2503.1531.1117.73994.1164.92014-.1228.28705.7989.47203.3381.1387.2105-.53578.2647-.10525.2871.02232.5836-.53741.4721-.14512.2918-.33648.1499-.18339.3811-.20891.142-.12279.3986-.4816.7001-.47522.8851-.05103.4034-.43854.1228-.30778-.0494-.44811.0414-.26153-.2392-.35243-.0319-.08133-.094-.19296.1945-.01754-.0622-.13715.0766z"/><path d="m10.4471 73.5248-.1547-.37-.2663-.2838-.0144-.6874.2105-.1355 1.5724.051-.0144 1.5086-1.1083.0335z"/><path d="m3.45084 77.3133.35083.2041.02073.0622-.16584.2615.53422.5359.65064.0781.06219.1515-.03987.7336-.15787.8467.03189.0941.37476.2711.05741.1962-.44652.8834-.10844 1.0143.36359.7048.24878.3062.05581.3684-.08292.1196-.24878-.3014-.52465.0574-.02711.1403.14511.2807.01755.472-.45768.437.13076-.4067-.32691-.5103-.13555-1.2438-.08133-.2663.04625-.5885-.07974-.3285.10366-.1515.31415.0845.26153-.0717.00319-.126-.21369-.3046.28226-.3014.03668-.4896-.33169-.48-.46566-.126-.03189-.2025.19136-.2536.0909-.3014-.12598-.6012-.50393-.5709.1818-.3093z"/><path d="m11.4439 94.2413-.6762-.6905-2.06193-1.5915-.42897.1866-.70167-.1037-.36519.016-.31256.0956-.10046-.5804-.22007-.496-.55974-.582.06857-.6587-.04625-.22-.25993-.1419-.41144.0095-.31894-.1802.1499-.2025-.00318-.1611-.12758-.1164-.18658-.0032-.17542-.118-.10206-.2663-.13076-.1196-.25835.0383-.30139-.0511-.36041-.2025h-.25993l-.4226.1244-.23283-.1053-.05103-.0908-.1483.0207-.04944-.0798.06538-.1961.49277-.5709.38591-.6921.25516-.2743.51668-1.0063.45768-.4369-.01754-.472-.14512-.2807.02711-.1403.52466-.0574.24877.3013.08292-.1196-.05581-.3683-.24877-.3062-.3636-.7049.10844-1.0142.44652-.8835-.05741-.1961-.37475-.2711-.0319-.0941.15788-.8468.40346.1563.16106.311.41941.0478.26312-.0781.42898-.3493.2711-.1148.87071.0734.55495-.2552.4816-.0781.0909-.0782.21847-.5103-.0877-.4258.02711-.1818.20093-.1355.29821.3891.30937.2089.10047.37.48961.1148.1578.2695.3206.2807.5629.1307.1627-.0988.1004-.421.3062-.2967.9664-.6251.2839-.3173.2408-.1037.1355.1196.2057.5199.547.6203.1005.6347-.2057.1818-.1436.0303-.6091-.0925-.4418.3381-.1834.3795.075.2696-.0495.338.2201.5933.0431.5087.1483.1036.3237-.1036.2025.0414.0654.5709.1786.421-.2057.0511-.9664-.067-.5167.0367-.3747.1403-.6475.5502-.4768.295-.0526.1977.0957.2855-.1754.4656.1451.7049.2934.5597-.1754.3844.0781.6825.1802.5486-.0271.1036-.1531.0622-.0383.0941.0303.5263.1308.1243.5295.1499.6203.0686.1882.2424-.0654.3572-.4019.3253-.3668.1499-.0175.1037.1611.3046-.1356.4545.1659.0877.2806.0255.5327-.0462.2455.228.3014-.0367.1707.1292.0446.1244-.0048.1499-.1929.2376-.0431.169.4768.5789.0559.1547-.1707.9393.0829.6395-.1291.767-.1595-.0447-.3636-.2647-1.1099-.1642z"/><path d="m14.4563 79.5165.043.0511.1499-.067 2.4702-.2918 1.0015-.2919.2934.0319.5167.4784.5023.2711.201.2233.1323.4688.6555.681.1004.539.2185.2551.2631.1244.9441.0941.4896.2025.421.311.0255.3955.3859.5135.0734.2232.4241.177.3636.2424.2313.0367.4034-.2791.3923.1659.3333.4401.1228 1.0781.1531.2758 1.381 1.346.4561.362.3716.4816.5677.3364.5613.6714-8.5811 5.4491-1.0525.791-.6857.6618-.3221.0335-1.3683-.4019-.3971.1324-.3333-.2584-.3412-.059-2.4718-.2663.1292-.767-.083-.6395.1707-.9393-.0558-.1547-.4769-.5789.0431-.169.193-.2376.0047-.1499-.0446-.1244-.1706-.1292-.3014.0367-.2456-.228-.5327.0462-.2806-.0255-.1659-.0877.1356-.4545-.1611-.3046.0175-.1036.3668-.1499.4019-.3254.0654-.3572-.1882-.2424-.6203-.0685-.5295-.1499-.1307-.1244-.0303-.5263.0382-.0941.1531-.0622.0271-.1036-.1802-.5486-.0781-.6825.1754-.3843-.2934-.5598-.1451-.7049.1754-.4656-.0957-.2855.0526-.1977.4768-.295.6475-.5502.3747-.1403.5167-.0367.9664.067.2057-.0511-.1786-.421-.0654-.5709-.2025-.0414-.3237.1036-.1483-.1036-.0431-.5087-.22-.5933.0494-.338-.075-.2695.1834-.3796.4418-.3381.6091.0925.1436-.0303z"/></g></svg>